<svg width="24" height="25" viewBox="0 0 24 25" fill="none" xmlns="http://www.w3.org/2000/svg">
<path d="M8.57145 0.890346C8.57145 0.416574 8.18766 0.0332031 7.7143 0.0332031H4.28573C3.81238 0.0332031 3.42859 0.416574 3.42859 0.890346V5.17606H8.57145V0.890346Z" fill="#C8C8DB"/>
<path d="M20.5714 0.890346C20.5714 0.416574 20.1877 0.0332031 19.7143 0.0332031H16.2857C15.8124 0.0332031 15.4286 0.416574 15.4286 0.890346V5.17606H20.5714V0.890346Z" fill="#C8C8DB"/>
<path d="M8.57143 19.3195C8.57143 19.4928 8.46722 19.6493 8.30692 19.7154C8.14579 19.7807 7.96247 19.7447 7.83984 19.6225L4.41127 16.6219C4.24386 16.4545 4.24386 16.1833 4.41127 16.0159L7.83984 13.0159C7.96247 12.8937 8.14621 12.8577 8.30692 12.923C8.46722 12.9891 8.57143 13.1456 8.57143 13.3189V14.6046H16.2857V15.7129L18.6797 13.7475L16.2857 11.7815V12.8903H12V6.0332H0.857143C0.383789 6.0332 0 6.41657 0 6.89035V23.1761C0 23.6498 0.383789 24.0332 0.857143 24.0332H11.1429V18.0332H8.57143V19.3195Z" fill="#C8C8DB"/>
<path d="M23.1429 6.0332H12.8571V12.0332H15.4286V10.7469C15.4286 10.5736 15.5328 10.4171 15.6931 10.351C15.8542 10.2857 16.0375 10.3217 16.1602 10.4439L19.5887 13.4445C19.7561 13.6119 19.7561 13.8831 19.5887 14.0505L16.1602 17.0505C16.0375 17.1727 15.8538 17.2087 15.6931 17.1434C15.5328 17.0773 15.4286 16.9208 15.4286 16.7475V15.4618H7.71429V14.3535L5.32031 16.3189L7.71429 18.2849V17.1761H12V24.0332H23.1429C23.6162 24.0332 24 23.6498 24 23.1761V6.89035C24 6.41657 23.6162 6.0332 23.1429 6.0332Z" fill="#C8C8DB"/>
</svg>
