<svg width="20" height="28" viewBox="0 0 20 28" fill="none" xmlns="http://www.w3.org/2000/svg">
<path d="M14.1867 8.43091C14.3406 8.27717 14.5491 8.19081 14.7666 8.19081C14.9841 8.19081 15.1927 8.27717 15.3465 8.43091L16.7212 9.80556L17.7785 1.77273L9.74562 2.82999L11.1203 4.20476C11.1964 4.28091 11.2568 4.37131 11.2981 4.47081C11.3393 4.57031 11.3605 4.67695 11.3605 4.78465C11.3605 4.89235 11.3393 4.99899 11.2981 5.09849C11.2568 5.19799 11.1964 5.2884 11.1203 5.36455L4.94477 11.54L6.69865 13.2938C6.85156 13.4478 6.93721 13.6561 6.93683 13.8732C6.93646 14.0902 6.85009 14.2982 6.69665 14.4516C6.54321 14.6051 6.3352 14.6915 6.11819 14.6919C5.90118 14.6923 5.69286 14.6066 5.53886 14.4538L3.2051 12.12C3.05129 11.9662 2.96488 11.7576 2.96488 11.54C2.96488 11.3225 3.05129 11.1139 3.2051 10.9601L9.38063 4.78461L7.40993 2.81376C7.30171 2.70552 7.22594 2.56916 7.1912 2.4201C7.15645 2.27104 7.16411 2.11523 7.21331 1.9703C7.26251 1.82536 7.35128 1.69709 7.46959 1.59999C7.58791 1.50289 7.73103 1.44083 7.88277 1.42084L18.624 0.0070182C18.7487 -0.00940348 18.8755 0.00308512 18.9947 0.0435179C19.1138 0.0839507 19.222 0.151244 19.3109 0.240191C19.3999 0.329138 19.4672 0.437355 19.5076 0.55647C19.548 0.675585 19.5605 0.802405 19.5441 0.927118L18.1303 11.6684C18.1103 11.8202 18.0483 11.9633 17.9512 12.0817C17.8541 12.2 17.7258 12.2888 17.5809 12.338C17.4359 12.3873 17.2801 12.3949 17.131 12.3602C16.982 12.3254 16.8456 12.2496 16.7373 12.1414L14.7666 10.1706L5.36439 19.5691C5.21056 19.7228 5.00198 19.8092 4.7845 19.8092C4.56701 19.8092 4.35843 19.7228 4.2046 19.5691L2.83001 18.1944L1.77262 26.2273L9.8055 25.1699L8.43085 23.7953C8.27705 23.6415 8.19064 23.4329 8.19064 23.2154C8.19064 22.9979 8.27705 22.7893 8.43085 22.6354L14.6064 16.46L12.8514 14.7048C12.7749 14.6287 12.7143 14.5383 12.6728 14.4387C12.6314 14.3391 12.61 14.2324 12.6099 14.1245C12.6098 14.0167 12.6309 13.9098 12.6721 13.8102C12.7134 13.7105 12.7738 13.62 12.8501 13.5437C12.9264 13.4674 13.0169 13.407 13.1166 13.3658C13.2162 13.3246 13.3231 13.3034 13.4309 13.3035C13.5388 13.3037 13.6455 13.3251 13.7451 13.3665C13.8447 13.408 13.9351 13.4687 14.0112 13.5451L16.3461 15.8801C16.4223 15.9563 16.4827 16.0467 16.5239 16.1462C16.5651 16.2457 16.5863 16.3523 16.5863 16.46C16.5863 16.5677 16.5651 16.6743 16.5239 16.7738C16.4827 16.8733 16.4223 16.9637 16.3461 17.0399L10.1705 23.2154L12.1413 25.186C12.2495 25.2942 12.3253 25.4306 12.36 25.5797C12.3948 25.7287 12.3871 25.8846 12.3379 26.0295C12.2887 26.1745 12.2 26.3028 12.0816 26.3999C11.9633 26.497 11.8202 26.559 11.6684 26.579L0.927113 27.993C0.802399 28.0094 0.675578 27.9969 0.556463 27.9565C0.437348 27.9161 0.329131 27.8488 0.240184 27.7598C0.151237 27.6709 0.0839453 27.5626 0.0435141 27.4435C0.00308286 27.3244 -0.00940407 27.1976 0.00702023 27.0729L1.42083 16.3316C1.44078 16.1798 1.50282 16.0367 1.59991 15.9183C1.69701 15.8 1.82529 15.7112 1.97023 15.662C2.11518 15.6127 2.27101 15.6051 2.42009 15.6398C2.56917 15.6746 2.70554 15.7504 2.81378 15.8586L4.78446 17.8293L14.1867 8.43091Z" fill="#1AB394"/>
</svg>
