<?xml version="1.0" encoding="utf-8"?>
<!-- Generator: Adobe Illustrator 27.4.0, SVG Export Plug-In . SVG Version: 6.00 Build 0)  -->
<svg version="1.1" id="Layer_1" xmlns="http://www.w3.org/2000/svg" xmlns:xlink="http://www.w3.org/1999/xlink" x="0px" y="0px"
	 viewBox="0 0 24 25" style="enable-background:new 0 0 24 25;" xml:space="preserve">
<style type="text/css">
	.st0{fill:#C8C8DB;}
</style>
<g>
	<path class="st0" d="M7.9,9.3v5c0,1.1,0.6,2.3,1.6,2.8l0,0l0,0l2.9,1.8l2.9-1.8c1-0.6,1.6-1.7,1.6-2.8v-5c-1.8-0.1-3.5-0.6-4.5-1.5
		C11.3,8.7,9.7,9.2,7.9,9.3z M16.3,11.1l-4.5,4.5l-3.4-3.4l0.8-0.8l2.5,2.5l3.7-3.7L16.3,11.1z"/>
	<path class="st0" d="M12,0.5c-6.6,0-12,5.4-12,12c0,6.6,5.4,12,12,12s12-5.4,12-12C24,5.9,18.6,0.5,12,0.5z M18.1,14.3
		c0,1.6-0.8,3-2.2,3.9l-3.5,2.2l-3.5-2.2c-1.3-0.8-2.2-2.3-2.2-3.8V8.2h0.6c2,0,3.8-0.6,4.7-1.6l0.4-0.5l0.4,0.5
		c0.9,1,2.7,1.6,4.7,1.6h0.6V14.3z"/>
</g>
</svg>
