<svg width="20" height="20" viewBox="0 0 20 20" fill="none" xmlns="http://www.w3.org/2000/svg">
<path d="M10 20C15.5228 20 20 15.5228 20 10C20 4.47715 15.5228 0 10 0C4.47715 0 0 4.47715 0 10C0 15.5228 4.47715 20 10 20Z" fill="#0F1314"/>
<path d="M10.9998 7.62695C10.0588 7.63033 9.67814 8.84624 10.4482 9.38579C10.5423 9.45153 10.5984 9.55907 10.5984 9.67384V9.93542H11.4012V9.67387C11.4012 9.55911 11.4572 9.45155 11.5513 9.38581C12.3218 8.84593 11.9403 7.63016 10.9998 7.62695Z" fill="white"/>
<path d="M16.7899 4.68909C16.6647 4.63192 16.5178 4.65308 16.4138 4.74316C13.8019 6.80031 7.74801 2.31287 5.12131 4.74316C5.04426 4.80993 5 4.90683 5 5.00877V15.6508C5.01729 16.1166 5.68572 16.1162 5.70285 15.6508V12.9073C8.38104 11.0942 14.2666 15.3906 16.874 13.0042C16.9511 12.9375 16.9953 12.8406 16.9953 12.7386V5.00875C16.9953 4.87117 16.9151 4.74623 16.7899 4.68909ZM12.6666 8.593C12.6666 8.8505 12.6063 9.10049 12.4959 9.32577L13.2561 9.7058L13.4754 9.59614C13.6482 9.50971 13.8597 9.57889 13.9469 9.75329C14.0337 9.9269 13.9633 10.138 13.7898 10.2248L13.7277 10.2558L13.7587 10.3179C13.8455 10.4915 13.7751 10.7026 13.6016 10.7894C13.428 10.8762 13.2169 10.8058 13.1301 10.6322L12.9943 10.3607L12.102 9.9146V10.2869C12.102 10.4809 11.9446 10.6383 11.7505 10.6383H10.2449C10.0508 10.6383 9.89343 10.4809 9.89343 10.2869V9.9146L9.0011 10.3607L8.86533 10.6322C8.77853 10.8058 8.56744 10.8762 8.39383 10.7894C8.22023 10.7026 8.14987 10.4915 8.23668 10.3179L8.26772 10.2558L8.20563 10.2248C8.03203 10.138 7.96167 9.9269 8.04847 9.75329C8.13568 9.57889 8.34716 9.50971 8.51997 9.59614L8.73928 9.7058L9.49951 9.32577C9.38007 9.08223 9.31829 8.80559 9.33047 8.52827L8.73928 8.233L8.51997 8.34267C8.34716 8.4291 8.13568 8.35991 8.04847 8.18551C7.96167 8.01191 8.03205 7.80082 8.20563 7.71404L8.26772 7.683L8.23668 7.62091C8.14987 7.44733 8.22025 7.23622 8.39383 7.14944C8.56744 7.06259 8.77853 7.133 8.86533 7.3066L9.0011 7.57813L9.51242 7.8335C10.1193 6.62847 11.8766 6.62912 12.483 7.8335L12.9943 7.57813L13.1301 7.3066C13.2169 7.133 13.428 7.06259 13.6016 7.14944C13.7752 7.23622 13.8455 7.44733 13.7587 7.62091L13.7277 7.683L13.7898 7.71404C13.9634 7.80082 14.0337 8.01191 13.9469 8.18551C13.8597 8.35991 13.6483 8.4291 13.4754 8.34267L13.2561 8.233L12.6649 8.52827C12.6657 8.54978 12.6666 8.57129 12.6666 8.593Z" fill="white"/>
</svg>
