<svg width="24" height="26" viewBox="0 0 24 26" fill="none" xmlns="http://www.w3.org/2000/svg">
<path d="M5.71428 13.8904H13.0729L12.8243 14.1432C12.7346 14.22 12.6617 14.3146 12.6102 14.4209C12.5588 14.5273 12.5299 14.6431 12.5253 14.7612C12.5208 14.8792 12.5406 14.9969 12.5837 15.1069C12.6268 15.2169 12.6922 15.3168 12.7757 15.4003C12.8593 15.4839 12.9592 15.5492 13.0691 15.5923C13.1791 15.6354 13.2969 15.6553 13.4149 15.6507C13.5329 15.6462 13.6488 15.6173 13.7551 15.5658C13.8615 15.5144 13.956 15.4415 14.0329 15.3518L15.7471 13.6375C15.9068 13.4769 15.9964 13.2597 15.9964 13.0332C15.9964 12.8068 15.9068 12.5895 15.7471 12.4289L14.0329 10.7146C13.8689 10.5742 13.658 10.5008 13.4422 10.5092C13.2265 10.5175 13.0219 10.6069 12.8692 10.7596C12.7166 10.9122 12.6271 11.1169 12.6188 11.3326C12.6105 11.5483 12.6839 11.7592 12.8243 11.9232L13.0729 12.1761H5.71428C4.91863 12.1761 4.15557 11.86 3.59296 11.2974C3.03036 10.7348 2.71429 9.97172 2.71429 9.17607C2.71429 8.38042 3.03036 7.61736 3.59296 7.05475C4.15557 6.49214 4.91863 6.17607 5.71428 6.17607H13.0857C13.2981 7.21668 13.8894 8.14135 14.7448 8.77081C15.6002 9.40027 16.6589 9.68968 17.7156 9.58294C18.7723 9.47619 19.7517 8.98089 20.4639 8.19306C21.1762 7.40522 21.5705 6.38099 21.5705 5.31892C21.5705 4.25686 21.1762 3.23263 20.4639 2.44479C19.7517 1.65696 18.7723 1.16166 17.7156 1.05491C16.6589 0.948168 15.6002 1.23758 14.7448 1.86704C13.8894 2.49651 13.2981 3.42118 13.0857 4.46178H5.71428C4.46398 4.46178 3.26488 4.95846 2.38078 5.84256C1.49668 6.72666 1 7.92576 1 9.17607C1 10.4264 1.49668 11.6255 2.38078 12.5096C3.26488 13.3937 4.46398 13.8904 5.71428 13.8904Z" fill="#C8C8DB"/>
<path d="M17.7143 13.0329C17.7143 13.2603 17.8046 13.4783 17.9653 13.639C18.1261 13.7998 18.3441 13.8901 18.5714 13.8901C19.3671 13.8901 20.1301 14.2061 20.6927 14.7687C21.2553 15.3314 21.5714 16.0944 21.5714 16.8901C21.5714 17.6857 21.2553 18.4488 20.6927 19.0114C20.1301 19.574 19.3671 19.8901 18.5714 19.8901H11.2C10.9876 18.8495 10.3963 17.9248 9.54091 17.2953C8.68548 16.6659 7.6268 16.3764 6.57011 16.4832C5.51342 16.5899 4.53401 17.0852 3.82176 17.8731C3.1095 18.6609 2.71515 19.6851 2.71515 20.7472C2.71515 21.8093 3.1095 22.8335 3.82176 23.6213C4.53401 24.4092 5.51342 24.9045 6.57011 25.0112C7.6268 25.118 8.68548 24.8286 9.54091 24.1991C10.3963 23.5696 10.9876 22.645 11.2 21.6043H18.5714C19.8217 21.6043 21.0208 21.1077 21.9049 20.2236C22.789 19.3395 23.2857 18.1404 23.2857 16.8901C23.2857 15.6398 22.789 14.4407 21.9049 13.5566C21.0208 12.6725 19.8217 12.1758 18.5714 12.1758C18.3441 12.1758 18.1261 12.2661 17.9653 12.4268C17.8046 12.5876 17.7143 12.8056 17.7143 13.0329ZM8.88999 20.4943L7.1757 22.2086C7.0151 22.3683 6.79786 22.4579 6.57142 22.4579C6.34497 22.4579 6.12773 22.3683 5.96713 22.2086L5.10999 21.3515C4.96957 21.1875 4.89619 20.9766 4.90452 20.7609C4.91285 20.5452 5.00228 20.3405 5.15493 20.1879C5.30759 20.0352 5.51222 19.9458 5.72794 19.9375C5.94366 19.9291 6.15459 20.0025 6.31856 20.1429L6.57142 20.3915L7.68142 19.2858C7.84539 19.1454 8.05631 19.072 8.27203 19.0803C8.48775 19.0886 8.69239 19.1781 8.84504 19.3307C8.99769 19.4834 9.08712 19.688 9.09545 19.9037C9.10379 20.1195 9.03041 20.3304 8.88999 20.4943Z" fill="#C8C8DB"/>
</svg>
