<svg width="20" height="20" viewBox="0 0 20 20" fill="none" xmlns="http://www.w3.org/2000/svg">
<path d="M10 20C15.5228 20 20 15.5228 20 10C20 4.47715 15.5228 0 10 0C4.47715 0 0 4.47715 0 10C0 15.5228 4.47715 20 10 20Z" fill="#3E545E"/>
<path d="M15.4446 9.35911V7.56711C15.4446 7.2476 15.3177 6.94118 15.0918 6.71526C14.8658 6.48933 14.5594 6.36241 14.2399 6.36241H10.6258V5.57213C10.8096 5.40709 10.927 5.16976 10.927 4.90352C10.927 4.6639 10.8318 4.43408 10.6624 4.26464C10.493 4.0952 10.2631 4 10.0235 4C9.78387 4 9.55402 4.0952 9.38457 4.26464C9.21513 4.43408 9.11996 4.6639 9.11996 4.90352C9.11996 5.16976 9.23742 5.40709 9.42114 5.57213V6.36241H5.80705C5.48754 6.36241 5.18112 6.48933 4.9552 6.71526C4.72927 6.94118 4.60235 7.2476 4.60235 7.56711V9.37296L4.55898 9.37597C4.40712 9.38676 4.26501 9.45476 4.16128 9.56619C4.05755 9.67763 3.99992 9.82424 4 9.97651V11.1812C4 11.341 4.06346 11.4942 4.17642 11.6071C4.28939 11.7201 4.44259 11.7836 4.60235 11.7836V14.7953C4.60235 15.1148 4.72927 15.4212 4.9552 15.6471C5.18112 15.8731 5.48754 16 5.80705 16H14.2399C14.5594 16 14.8658 15.8731 15.0918 15.6471C15.3177 15.4212 15.4446 15.1148 15.4446 14.7953V11.7836C15.6044 11.7836 15.7576 11.7201 15.8705 11.6071C15.9835 11.4942 16.047 11.341 16.047 11.1812V10.0139C16.054 9.92038 16.0391 9.82653 16.0036 9.73979C15.8819 9.44585 15.6211 9.37537 15.4446 9.35911ZM7.01174 9.97651C7.01174 9.31152 7.41652 8.77181 7.91527 8.77181C8.41401 8.77181 8.81879 9.31152 8.81879 9.97651C8.81879 10.6415 8.41401 11.1812 7.91527 11.1812C7.41652 11.1812 7.01174 10.6415 7.01174 9.97651ZM12.4317 13.5906C11.8287 13.5888 7.61409 13.5906 7.61409 13.5906V12.3859C7.61409 12.3859 11.8311 12.3847 12.4341 12.3859L12.4317 13.5906ZM12.1317 11.1812C11.633 11.1812 11.2282 10.6415 11.2282 9.97651C11.2282 9.31152 11.633 8.77181 12.1317 8.77181C12.6305 8.77181 13.0352 9.31152 13.0352 9.97651C13.0352 10.6415 12.6305 11.1812 12.1317 11.1812Z" fill="white"/>
</svg>
