<svg width="14" height="14" viewBox="0 0 14 14" fill="none" xmlns="http://www.w3.org/2000/svg">
<circle cx="7" cy="7" r="7" fill="#1AB394"/>
<path fill-rule="evenodd" clip-rule="evenodd" d="M7 1.4C3.90721 1.4 1.4 3.90721 1.4 7C1.4 10.0928 3.90721 12.6 7 12.6C10.0928 12.6 12.6 10.0928 12.6 7C12.6 3.90721 10.0928 1.4 7 1.4ZM0 7C0 3.13401 3.13401 0 7 0C10.866 0 14 3.13401 14 7C14 10.866 10.866 14 7 14C3.13401 14 0 10.866 0 7Z" fill="#1AB394"/>
<path fill-rule="evenodd" clip-rule="evenodd" d="M9.59499 5.10542C9.86835 5.37878 9.86835 5.822 9.59499 6.09537L6.79499 8.89537C6.52162 9.16873 6.0784 9.16873 5.80504 8.89537L4.40504 7.49537C4.13167 7.222 4.13167 6.77878 4.40504 6.50542C4.6784 6.23205 5.12162 6.23205 5.39499 6.50542L6.30001 7.41044L8.60504 5.10542C8.8784 4.83205 9.32162 4.83205 9.59499 5.10542Z" fill="white"/>
</svg>
