<svg width="7" height="15" viewBox="0 0 7 15" fill="none" xmlns="http://www.w3.org/2000/svg">
<path d="M-0.000275306 8.00021C-0.000731649 8.23386 0.080643 8.4603 0.229724 8.64021L5.22972 14.6402C5.39946 14.8444 5.64337 14.9729 5.9078 14.9972C6.17223 15.0216 6.43551 14.94 6.63972 14.7702C6.84394 14.6005 6.97237 14.3566 6.99675 14.0921C7.02112 13.8277 6.93946 13.5644 6.76972 13.3602L2.28972 8.00021L6.60972 2.64021C6.69279 2.53792 6.75482 2.42023 6.79225 2.29389C6.82969 2.16755 6.84178 2.03506 6.82784 1.90403C6.8139 1.773 6.7742 1.64602 6.71103 1.53038C6.64786 1.41475 6.56245 1.31273 6.45972 1.23021C6.3569 1.13863 6.23628 1.06927 6.1054 1.02648C5.97453 0.983688 5.83623 0.968386 5.69917 0.981528C5.5621 0.994671 5.42923 1.03598 5.30887 1.10286C5.18852 1.16974 5.08327 1.26076 4.99972 1.37021L0.169725 7.37021C0.0442089 7.5553 -0.0156461 7.77711 -0.000275306 8.00021Z" fill="#1AB394"/>
</svg>
