<svg width="7" height="15" viewBox="0 0 7 15" fill="none" xmlns="http://www.w3.org/2000/svg">
<path d="M7.00028 8.00021C7.00073 8.23386 6.91936 8.4603 6.77028 8.64021L1.77028 14.6402C1.60054 14.8444 1.35663 14.9729 1.0922 14.9972C0.827773 15.0216 0.564492 14.94 0.360275 14.7702C0.156059 14.6005 0.0276347 14.3566 0.00325492 14.0921C-0.0211248 13.8277 0.0605366 13.5644 0.230275 13.3602L4.71028 8.00021L0.390275 2.64021C0.307209 2.53792 0.245178 2.42023 0.207746 2.29389C0.170314 2.16755 0.15822 2.03506 0.17216 1.90403C0.186099 1.773 0.225796 1.64602 0.288969 1.53038C0.352143 1.41475 0.437548 1.31273 0.540275 1.23021C0.643096 1.13863 0.763723 1.06927 0.894597 1.02648C1.02547 0.983688 1.16377 0.968386 1.30083 0.981528C1.4379 0.994671 1.57077 1.03598 1.69113 1.10286C1.81148 1.16974 1.91673 1.26076 2.00028 1.37021L6.83028 7.37021C6.95579 7.5553 7.01565 7.77711 7.00028 8.00021Z" fill="#1AB394"/>
</svg>
