<svg width="22" height="22" viewBox="0 0 22 22" fill="none" xmlns="http://www.w3.org/2000/svg">
<g clip-path="url(#clip0_14811_108814)">
<path d="M10.9986 5.49966L20.5233 5.49967C19.5581 3.82739 18.1697 2.4387 16.4976 1.47323C14.8255 0.507755 12.9287 -0.000464266 10.9978 -0.000329526C9.06702 -0.00019431 7.17027 0.50829 5.4983 1.474C3.82633 2.4397 2.43809 3.82859 1.47315 5.501L6.23553 13.7497L6.23976 13.7486C5.75531 12.9131 5.49965 11.9648 5.49856 10.999C5.49748 10.0333 5.751 9.08437 6.23358 8.24787C6.71617 7.41136 7.41075 6.71686 8.24731 6.23437C9.08387 5.75188 10.0328 5.49846 10.9986 5.49966Z" fill="url(#paint0_linear_14811_108814)"/>
<path d="M15.7642 13.749L11.0018 21.9976C12.9326 21.9979 14.8295 21.4898 16.5016 20.5245C18.1738 19.5591 19.5623 18.1706 20.5276 16.4984C21.4929 14.8261 22.001 12.9293 22.0006 10.9984C22.0003 9.06763 21.4916 7.17093 20.5257 5.49906L11.001 5.49908L10.9998 5.50329C11.9655 5.50145 12.9147 5.75423 13.7515 6.23615C14.5884 6.71807 15.2835 7.41211 15.7666 8.24829C16.2498 9.08447 16.5039 10.0332 16.5035 10.999C16.5031 11.9647 16.248 12.9132 15.7642 13.749Z" fill="url(#paint1_linear_14811_108814)"/>
<path d="M6.23727 13.7514L1.47491 5.50275C0.509258 7.17475 0.000834903 9.07152 0.000762947 11.0023C0.000690991 12.9332 0.508972 14.83 1.4745 16.502C2.44003 18.1741 3.82876 19.5625 5.50107 20.5276C7.17338 21.4927 9.07032 22.0005 11.0011 22L15.7635 13.7513L15.7604 13.7482C15.2792 14.5855 14.5857 15.2811 13.7499 15.7649C12.9141 16.2487 11.9655 16.5036 10.9998 16.5039C10.034 16.5042 9.0853 16.25 8.24918 15.7667C7.41305 15.2835 6.7191 14.5884 6.23727 13.7514Z" fill="url(#paint2_linear_14811_108814)"/>
<path d="M11 16.5C14.0376 16.5 16.5 14.0376 16.5 11C16.5 7.96243 14.0376 5.5 11 5.5C7.96243 5.5 5.5 7.96243 5.5 11C5.5 14.0376 7.96243 16.5 11 16.5Z" fill="white"/>
<path d="M11 15.3542C13.4047 15.3542 15.3542 13.4048 15.3542 11C15.3542 8.5953 13.4047 6.64587 11 6.64587C8.59526 6.64587 6.64583 8.5953 6.64583 11C6.64583 13.4048 8.59526 15.3542 11 15.3542Z" fill="#1A73E8"/>
</g>
<defs>
<linearGradient id="paint0_linear_14811_108814" x1="19.3351" y1="4.81327" x2="9.81" y2="21.3112" gradientUnits="userSpaceOnUse">
<stop stop-color="#D93025"/>
<stop offset="1" stop-color="#EA4335"/>
</linearGradient>
<linearGradient id="paint1_linear_14811_108814" x1="21.1501" y1="6.87477" x2="2.09999" y2="6.87475" gradientUnits="userSpaceOnUse">
<stop stop-color="#FCC934"/>
<stop offset="1" stop-color="#FBBC04"/>
</linearGradient>
<linearGradient id="paint2_linear_14811_108814" x1="12.1908" y1="21.3132" x2="2.6657" y2="4.81525" gradientUnits="userSpaceOnUse">
<stop stop-color="#1E8E3E"/>
<stop offset="1" stop-color="#34A853"/>
</linearGradient>
<clipPath id="clip0_14811_108814">
<rect width="22" height="22" fill="white"/>
</clipPath>
</defs>
</svg>
