<svg width="24" height="25" viewBox="0 0 24 25" fill="none" xmlns="http://www.w3.org/2000/svg">
<path d="M9.24994 0.494141H1.74994C0.784973 0.494141 0 1.27911 0 2.24408V6.74408C0 7.70923 0.784973 8.4942 1.74994 8.4942H9.24994C10.2151 8.4942 11.0001 7.70923 11.0001 6.74408V2.24408C11.0001 1.27911 10.2151 0.494141 9.24994 0.494141Z" fill="white"/>
<path d="M9.24994 10.4941H1.74994C0.784973 10.4941 0 11.2791 0 12.2443V22.7443C0 23.7092 0.784973 24.4942 1.74994 24.4942H9.24994C10.2151 24.4942 11.0001 23.7092 11.0001 22.7443V12.2443C11.0001 11.2791 10.2151 10.4941 9.24994 10.4941Z" fill="white"/>
<path d="M22.2501 16.4941H14.7501C13.785 16.4941 13 17.2791 13 18.2443V22.7443C13 23.7092 13.785 24.4942 14.7501 24.4942H22.2501C23.2151 24.4942 24.0001 23.7092 24.0001 22.7443V18.2443C24.0001 17.2791 23.2151 16.4941 22.2501 16.4941Z" fill="white"/>
<path d="M22.2501 0.494141H14.7501C13.785 0.494141 13 1.27911 13 2.24408V12.7441C13 13.7092 13.785 14.4942 14.7501 14.4942H22.2501C23.2151 14.4942 24.0001 13.7092 24.0001 12.7441V2.24408C24.0001 1.27911 23.2151 0.494141 22.2501 0.494141Z" fill="white"/>
</svg>
