<svg width="12" height="12" viewBox="0 0 12 12" fill="none" xmlns="http://www.w3.org/2000/svg">
<path d="M11 1.33333V4.33333C11 4.51758 10.8509 4.66667 10.6667 4.66667C10.4824 4.66667 10.3333 4.51758 10.3333 4.33333V2.138L5.569 6.90233C5.50392 6.96742 5.41858 7 5.33333 7C5.24808 7 5.16275 6.96742 5.09767 6.90233C4.96742 6.77208 4.96742 6.56117 5.09767 6.431L9.862 1.66667H7.66667C7.48242 1.66667 7.33333 1.51758 7.33333 1.33333C7.33333 1.14908 7.48242 1 7.66667 1H10.6667C10.8509 1 11 1.14908 11 1.33333ZM9.66667 10V6C9.66667 5.81575 9.51758 5.66667 9.33333 5.66667C9.14908 5.66667 9 5.81575 9 6V10C9 10.1839 8.85058 10.3333 8.66667 10.3333H2C1.81608 10.3333 1.66667 10.1839 1.66667 10V3.33333C1.66667 3.14942 1.81608 3 2 3H6C6.18425 3 6.33333 2.85092 6.33333 2.66667C6.33333 2.48242 6.18425 2.33333 6 2.33333H2C1.44858 2.33333 1 2.78192 1 3.33333V10C1 10.5514 1.44858 11 2 11H8.66667C9.21808 11 9.66667 10.5514 9.66667 10Z" fill="#222328" stroke="#222328" stroke-width="0.5"/>
</svg>
