<svg width="22" height="22" viewBox="0 0 22 22" fill="none" xmlns="http://www.w3.org/2000/svg">
<g clip-path="url(#clip0_14814_108927)">
<path d="M20.3503 7.44612C19.8953 6.35148 18.9725 5.16959 18.2499 4.79597C18.7652 5.79387 19.1229 6.86554 19.3102 7.9729L19.3121 7.99046C18.1283 5.04046 16.1217 3.84911 14.4819 1.2584C14.3989 1.12738 14.316 0.996085 14.2352 0.8575C14.189 0.778347 14.152 0.707028 14.1199 0.641382C14.0519 0.5097 13.9995 0.370534 13.9637 0.226707C13.9638 0.22007 13.9614 0.213647 13.957 0.208665C13.9526 0.203682 13.9465 0.200488 13.9399 0.199692C13.9335 0.197922 13.9267 0.197922 13.9202 0.199692C13.9189 0.199692 13.9167 0.202123 13.9151 0.202664C13.9135 0.203204 13.91 0.205635 13.9075 0.206716L13.9116 0.199692C11.2817 1.73953 10.3889 4.58958 10.3078 6.01596C9.25721 6.08799 8.2527 6.47501 7.42535 7.12653C7.33907 7.05345 7.24889 6.98509 7.15521 6.92176C6.91666 6.08672 6.9065 5.20297 7.12576 4.36266C6.15995 4.8305 5.30177 5.49374 4.60556 6.31042H4.6007C4.18575 5.78444 4.21493 4.0501 4.2387 3.68783C4.11594 3.73716 3.99877 3.79938 3.88913 3.87342C3.52282 4.13485 3.18037 4.42821 2.86581 4.75005C2.50735 5.11348 2.17996 5.50629 1.88707 5.92438V5.926V5.92411C1.21401 6.87816 0.736567 7.95608 0.482305 9.09563L0.468258 9.16479C0.448537 9.25691 0.377488 9.71832 0.365332 9.81855C0.365332 9.82638 0.363711 9.83367 0.3629 9.84151C0.271253 10.3179 0.214461 10.8003 0.192978 11.2849V11.3389C0.197605 13.959 1.18431 16.4821 2.9583 18.4102C4.73229 20.3382 7.16466 21.5312 9.77525 21.7536C12.3858 21.9759 14.9849 21.2115 17.0594 19.6112C19.1339 18.0109 20.5331 15.691 20.9808 13.1095C20.9984 12.9744 21.0127 12.8407 21.0283 12.7043C21.244 10.9218 21.0105 9.11371 20.3492 7.44449L20.3503 7.44612ZM8.2828 15.6424C8.3317 15.6659 8.37762 15.6913 8.42787 15.7137L8.43516 15.7183C8.38438 15.694 8.33359 15.6687 8.2828 15.6424ZM19.3124 7.99343V7.98344L19.3143 7.99451L19.3124 7.99343Z" fill="url(#paint0_linear_14814_108927)"/>
<path d="M20.3502 7.4461C19.8953 6.35147 18.9725 5.16957 18.2498 4.79596C18.7652 5.79385 19.1228 6.86553 19.3102 7.97289V7.98288L19.3121 7.99396C20.1192 10.3035 20.0025 12.8356 18.9863 15.061C17.7863 17.6358 14.8827 20.2748 10.3362 20.1452C5.42489 20.006 1.09713 16.3604 0.289395 11.5869C0.142165 10.834 0.289395 10.4523 0.363416 9.84041C0.262448 10.3157 0.206103 10.7994 0.195114 11.2852V11.3392C0.199741 13.9592 1.18644 16.4823 2.96044 18.4104C4.73443 20.3385 7.1668 21.5315 9.77738 21.7538C12.388 21.9762 14.9871 21.2117 17.0616 19.6114C19.1361 18.0111 20.5353 15.6912 20.9829 13.1097C21.0005 12.9747 21.0148 12.8409 21.0305 12.7045C21.2461 10.9221 21.0127 9.11397 20.3513 7.44475L20.3502 7.4461Z" fill="url(#paint1_radial_14814_108927)"/>
<path d="M20.3502 7.4461C19.8953 6.35147 18.9725 5.16957 18.2498 4.79596C18.7652 5.79385 19.1228 6.86553 19.3102 7.97289V7.98288L19.3121 7.99396C20.1192 10.3035 20.0025 12.8356 18.9863 15.061C17.7863 17.6358 14.8827 20.2748 10.3362 20.1452C5.42489 20.006 1.09713 16.3604 0.289395 11.5869C0.142165 10.834 0.289395 10.4523 0.363416 9.84041C0.262448 10.3157 0.206103 10.7994 0.195114 11.2852V11.3392C0.199741 13.9592 1.18644 16.4823 2.96044 18.4104C4.73443 20.3385 7.1668 21.5315 9.77738 21.7538C12.388 21.9762 14.9871 21.2117 17.0616 19.6114C19.1361 18.0111 20.5353 15.6912 20.9829 13.1097C21.0005 12.9747 21.0148 12.8409 21.0305 12.7045C21.2461 10.9221 21.0127 9.11397 20.3513 7.44475L20.3502 7.4461Z" fill="url(#paint2_radial_14814_108927)"/>
<path d="M15.2607 8.67527C15.2834 8.69121 15.3044 8.70715 15.3258 8.72309C15.0628 8.25673 14.7354 7.82976 14.3532 7.45475C11.098 4.19948 13.5004 0.398508 13.9053 0.204002L13.9094 0.198059C11.2795 1.7379 10.3867 4.58795 10.3056 6.01432C10.4277 6.00595 10.5488 5.99568 10.6736 5.99568C11.6066 5.99749 12.5226 6.24632 13.3282 6.71688C14.1339 7.18744 14.8007 7.86295 15.2607 8.67473V8.67527Z" fill="url(#paint3_radial_14814_108927)"/>
<path d="M10.679 9.32636C10.6617 9.58678 9.74157 10.485 9.41983 10.485C6.44281 10.485 5.95924 12.2861 5.95924 12.2861C6.09108 13.8027 7.14789 15.0524 8.42542 15.7116C8.48377 15.7418 8.54293 15.7691 8.60209 15.7958C8.70457 15.8412 8.80704 15.8832 8.90952 15.9217C9.34796 16.0769 9.80718 16.1655 10.2719 16.1846C15.4911 16.4293 16.5015 9.94419 12.7353 8.06126C13.6237 7.94567 14.5234 8.16411 15.2599 8.67423C14.7999 7.86244 14.1331 7.18694 13.3274 6.71637C12.5217 6.24581 11.6058 5.99698 10.6728 5.99518C10.5485 5.99518 10.4269 6.00544 10.3048 6.01382C9.25421 6.08585 8.2497 6.47287 7.42236 7.12439C7.58202 7.25947 7.7622 7.43992 8.14176 7.81408C8.85225 8.51403 10.6744 9.2391 10.6784 9.3242L10.679 9.32636Z" fill="url(#paint4_radial_14814_108927)"/>
<path d="M10.679 9.32636C10.6617 9.58678 9.74157 10.485 9.41983 10.485C6.44281 10.485 5.95924 12.2861 5.95924 12.2861C6.09108 13.8027 7.14789 15.0524 8.42542 15.7116C8.48377 15.7418 8.54293 15.7691 8.60209 15.7958C8.70457 15.8412 8.80704 15.8832 8.90952 15.9217C9.34796 16.0769 9.80718 16.1655 10.2719 16.1846C15.4911 16.4293 16.5015 9.94419 12.7353 8.06126C13.6237 7.94567 14.5234 8.16411 15.2599 8.67423C14.7999 7.86244 14.1331 7.18694 13.3274 6.71637C12.5217 6.24581 11.6058 5.99698 10.6728 5.99518C10.5485 5.99518 10.4269 6.00544 10.3048 6.01382C9.25421 6.08585 8.2497 6.47287 7.42236 7.12439C7.58202 7.25947 7.7622 7.43992 8.14176 7.81408C8.85225 8.51403 10.6744 9.2391 10.6784 9.3242L10.679 9.32636Z" fill="url(#paint5_radial_14814_108927)"/>
<path d="M6.93474 6.77887C7.01957 6.8329 7.08954 6.87991 7.15086 6.92232C6.91232 6.08728 6.90215 5.20353 7.12141 4.36322C6.1556 4.83106 5.29743 5.49431 4.60121 6.31098C4.65227 6.30963 6.17104 6.28234 6.93474 6.77887Z" fill="url(#paint6_radial_14814_108927)"/>
<path d="M0.287516 11.5875C1.09553 16.361 5.42301 20.008 10.3343 20.1457C14.8809 20.2743 17.7849 17.635 18.9844 15.0616C20.0006 12.8361 20.1173 10.304 19.3102 7.99453V7.98453C19.3102 7.9767 19.3086 7.9721 19.3102 7.97453L19.3121 7.99209C19.6835 10.4172 18.45 12.7656 16.5215 14.3568L16.5155 14.3703C12.7578 17.431 9.16212 16.2164 8.43542 15.721C8.38463 15.6967 8.33385 15.6714 8.28306 15.6451C6.09244 14.598 5.18717 12.6032 5.38168 10.8905C4.86167 10.8982 4.3506 10.7549 3.91039 10.478C3.47017 10.2011 3.11971 9.80245 2.90146 9.3304C3.47655 8.97812 4.13227 8.77896 4.80614 8.75191C5.48001 8.72486 6.14958 8.87082 6.75105 9.17588C7.99083 9.73863 9.40156 9.79409 10.6817 9.3304C10.6776 9.24531 8.8555 8.51996 8.14501 7.82028C7.76546 7.44613 7.58527 7.26594 7.42561 7.1306C7.33933 7.05751 7.24914 6.98915 7.15546 6.92582C7.09333 6.88341 7.02336 6.83749 6.93935 6.78238C6.17564 6.28585 4.65687 6.31313 4.60663 6.31448H4.60176C4.18682 5.78851 4.21599 4.05416 4.23977 3.69189C4.11701 3.74123 3.99983 3.80344 3.8902 3.87749C3.52389 4.13892 3.18144 4.43227 2.86688 4.75411C2.50713 5.11652 2.17839 5.50843 1.88409 5.92574C1.21102 6.8798 0.733582 7.95744 0.479321 9.097C0.474188 9.11834 0.102195 10.7446 0.285625 11.588L0.287516 11.5875Z" fill="url(#paint7_radial_14814_108927)"/>
<path d="M14.353 7.45422C14.7352 7.82965 15.0626 8.25708 15.3255 8.72392C15.383 8.76741 15.4368 8.81063 15.4825 8.8525C17.8562 11.0407 16.6125 14.1339 16.5198 14.3527C18.4481 12.764 19.6805 10.414 19.3104 7.98803C18.1261 5.03533 16.1173 3.84398 14.4802 1.25327C14.3973 1.12225 14.3143 0.990958 14.2336 0.852373C14.1874 0.77322 14.1504 0.701901 14.1182 0.636255C14.0502 0.504573 13.9978 0.365407 13.9621 0.22158C13.9621 0.214943 13.9597 0.20852 13.9553 0.203538C13.951 0.198555 13.9449 0.195361 13.9383 0.194565C13.9318 0.192795 13.925 0.192795 13.9186 0.194565C13.9172 0.194565 13.9151 0.196996 13.9134 0.197537C13.9118 0.198077 13.9083 0.200508 13.9059 0.201589C13.5009 0.393663 11.0991 4.19706 14.3543 7.44963L14.353 7.45422Z" fill="url(#paint8_radial_14814_108927)"/>
<path d="M15.4822 8.85359C15.4365 8.81172 15.3828 8.76849 15.3252 8.725C15.3039 8.70906 15.2828 8.69312 15.2601 8.67718C14.5237 8.16707 13.624 7.94863 12.7356 8.06422C16.5015 9.94715 15.4911 16.4307 10.2721 16.1875C9.80745 16.1684 9.34824 16.0798 8.90979 15.9247C8.80732 15.8863 8.70484 15.8444 8.60237 15.7988C8.5432 15.7718 8.48404 15.7448 8.42569 15.7145L8.43298 15.7191C9.16076 16.2159 12.7553 17.4297 16.5131 14.3684L16.519 14.3549C16.6128 14.136 17.8565 11.0429 15.4817 8.85467L15.4822 8.85359Z" fill="url(#paint9_radial_14814_108927)"/>
<path d="M5.95951 12.2844C5.95951 12.2844 6.44281 10.4834 9.4201 10.4834C9.74184 10.4834 10.6628 9.58513 10.6793 9.32471C9.39912 9.7884 7.98839 9.73294 6.74861 9.17019C6.14714 8.86513 5.47757 8.71917 4.8037 8.74622C4.12982 8.77327 3.47411 8.97243 2.89902 9.32471C3.11727 9.79676 3.46773 10.1954 3.90795 10.4723C4.34816 10.7492 4.85923 10.8925 5.37924 10.8848C5.18527 12.5967 6.09026 14.5912 8.28062 15.6394C8.32951 15.6629 8.37544 15.6883 8.42568 15.7107C7.14708 15.0502 6.09134 13.801 5.95951 12.2853V12.2844Z" fill="url(#paint10_radial_14814_108927)"/>
<path d="M20.3503 7.44612C19.8953 6.35148 18.9725 5.16959 18.2499 4.79597C18.7652 5.79387 19.1229 6.86554 19.3102 7.9729L19.3121 7.99046C18.1283 5.04046 16.1217 3.84911 14.4819 1.2584C14.3989 1.12738 14.316 0.996085 14.2352 0.8575C14.189 0.778347 14.152 0.707028 14.1199 0.641382C14.0519 0.5097 13.9995 0.370534 13.9637 0.226707C13.9638 0.22007 13.9614 0.213647 13.957 0.208665C13.9526 0.203682 13.9465 0.200488 13.94 0.199692C13.9335 0.197922 13.9267 0.197922 13.9202 0.199692C13.9189 0.199692 13.9167 0.202123 13.9151 0.202664C13.9135 0.203204 13.91 0.205635 13.9075 0.206716L13.9116 0.199692C11.2817 1.73953 10.3889 4.58958 10.3078 6.01596C10.4299 6.00758 10.551 5.99732 10.6758 5.99732C11.6088 5.99912 12.5247 6.24795 13.3304 6.71851C14.1361 7.18907 14.8029 7.86458 15.2629 8.67636C14.5264 8.16625 13.6267 7.94781 12.7383 8.0634C16.5042 9.94633 15.4938 16.4299 10.2749 16.1867C9.81018 16.1676 9.35097 16.079 8.91252 15.9239C8.81005 15.8855 8.70757 15.8435 8.60509 15.798C8.54593 15.771 8.48677 15.7439 8.42842 15.7137L8.43571 15.7183C8.38492 15.694 8.33414 15.6687 8.28335 15.6424C8.33225 15.6659 8.37817 15.6913 8.42842 15.7137C7.14981 15.0529 6.09408 13.8038 5.96225 12.2882C5.96225 12.2882 6.44554 10.4872 9.42283 10.4872C9.74457 10.4872 10.6655 9.58892 10.682 9.3285C10.6779 9.2434 8.85579 8.51806 8.1453 7.81838C7.76575 7.44422 7.58556 7.26404 7.4259 7.12869C7.33962 7.05561 7.24944 6.98725 7.15576 6.92392C6.91721 6.08888 6.90704 5.20513 7.12631 4.36482C6.1605 4.83266 5.30232 5.49591 4.60611 6.31258H4.60125C4.1863 5.7866 4.21548 4.05226 4.23925 3.68999C4.11649 3.73933 3.99931 3.80154 3.88968 3.87558C3.52337 4.13701 3.18092 4.43037 2.86636 4.75221C2.5079 5.11564 2.18051 5.50846 1.88762 5.92654C1.21456 6.88059 0.737116 7.95824 0.482855 9.09779L0.468807 9.16695C0.449086 9.25907 0.360748 9.72697 0.348051 9.82746C0.267251 10.3104 0.215649 10.7979 0.193527 11.2871V11.3411C0.198154 13.9611 1.18486 16.4842 2.95885 18.4123C4.73284 20.3404 7.16521 21.5334 9.7758 21.7557C12.3864 21.9781 14.9855 21.2136 17.06 19.6133C19.1345 18.013 20.5337 15.6931 20.9813 13.1116C20.9989 12.9766 21.0132 12.8428 21.0289 12.7064C21.2445 10.924 21.0111 9.11587 20.3497 7.44666L20.3503 7.44612Z" fill="url(#paint11_linear_14814_108927)"/>
</g>
<defs>
<linearGradient id="paint0_linear_14814_108927" x1="18.9644" y1="3.54409" x2="1.58235" y2="20.3148" gradientUnits="userSpaceOnUse">
<stop offset="0.048" stop-color="#FFF44F"/>
<stop offset="0.111" stop-color="#FFE847"/>
<stop offset="0.225" stop-color="#FFC830"/>
<stop offset="0.368" stop-color="#FF980E"/>
<stop offset="0.401" stop-color="#FF8B16"/>
<stop offset="0.462" stop-color="#FF672A"/>
<stop offset="0.534" stop-color="#FF3647"/>
<stop offset="0.705" stop-color="#E31587"/>
</linearGradient>
<radialGradient id="paint1_radial_14814_108927" cx="0" cy="0" r="1" gradientUnits="userSpaceOnUse" gradientTransform="translate(18.2917 2.62938) scale(21.8279)">
<stop offset="0.129" stop-color="#FFBD4F"/>
<stop offset="0.186" stop-color="#FFAC31"/>
<stop offset="0.247" stop-color="#FF9D17"/>
<stop offset="0.283" stop-color="#FF980E"/>
<stop offset="0.403" stop-color="#FF563B"/>
<stop offset="0.467" stop-color="#FF3750"/>
<stop offset="0.71" stop-color="#F5156C"/>
<stop offset="0.782" stop-color="#EB0878"/>
<stop offset="0.86" stop-color="#E50080"/>
</radialGradient>
<radialGradient id="paint2_radial_14814_108927" cx="0" cy="0" r="1" gradientUnits="userSpaceOnUse" gradientTransform="translate(10.1873 11.5442) scale(21.8279)">
<stop offset="0.3" stop-color="#960E18"/>
<stop offset="0.351" stop-color="#B11927" stop-opacity="0.74"/>
<stop offset="0.435" stop-color="#DB293D" stop-opacity="0.343"/>
<stop offset="0.497" stop-color="#F5334B" stop-opacity="0.094"/>
<stop offset="0.53" stop-color="#FF3750" stop-opacity="0"/>
</radialGradient>
<radialGradient id="paint3_radial_14814_108927" cx="0" cy="0" r="1" gradientUnits="userSpaceOnUse" gradientTransform="translate(12.8888 -2.23326) scale(15.8117)">
<stop offset="0.132" stop-color="#FFF44F"/>
<stop offset="0.252" stop-color="#FFDC3E"/>
<stop offset="0.506" stop-color="#FF9D12"/>
<stop offset="0.526" stop-color="#FF980E"/>
</radialGradient>
<radialGradient id="paint4_radial_14814_108927" cx="0" cy="0" r="1" gradientUnits="userSpaceOnUse" gradientTransform="translate(7.75599 17.2174) scale(10.3926)">
<stop offset="0.353" stop-color="#3A8EE6"/>
<stop offset="0.472" stop-color="#5C79F0"/>
<stop offset="0.669" stop-color="#9059FF"/>
<stop offset="1" stop-color="#C139E6"/>
</radialGradient>
<radialGradient id="paint5_radial_14814_108927" cx="0" cy="0" r="1" gradientUnits="userSpaceOnUse" gradientTransform="translate(11.243 9.67053) rotate(-13.5916) scale(5.51102 6.45203)">
<stop offset="0.206" stop-color="#9059FF" stop-opacity="0"/>
<stop offset="0.278" stop-color="#8C4FF3" stop-opacity="0.064"/>
<stop offset="0.747" stop-color="#7716A8" stop-opacity="0.45"/>
<stop offset="0.975" stop-color="#6E008B" stop-opacity="0.6"/>
</radialGradient>
<radialGradient id="paint6_radial_14814_108927" cx="0" cy="0" r="1" gradientUnits="userSpaceOnUse" gradientTransform="translate(9.91716 1.81898) scale(7.47767 7.47767)">
<stop stop-color="#FFE226"/>
<stop offset="0.121" stop-color="#FFDB27"/>
<stop offset="0.295" stop-color="#FFC82A"/>
<stop offset="0.502" stop-color="#FFA930"/>
<stop offset="0.732" stop-color="#FF7E37"/>
<stop offset="0.792" stop-color="#FF7139"/>
</radialGradient>
<radialGradient id="paint7_radial_14814_108927" cx="0" cy="0" r="1" gradientUnits="userSpaceOnUse" gradientTransform="translate(15.8604 -3.04368) scale(31.9044 31.9044)">
<stop offset="0.113" stop-color="#FFF44F"/>
<stop offset="0.456" stop-color="#FF980E"/>
<stop offset="0.622" stop-color="#FF5634"/>
<stop offset="0.716" stop-color="#FF3647"/>
<stop offset="0.904" stop-color="#E31587"/>
</radialGradient>
<radialGradient id="paint8_radial_14814_108927" cx="0" cy="0" r="1" gradientUnits="userSpaceOnUse" gradientTransform="translate(13.2086 -1.27476) rotate(83.976) scale(23.38 15.3441)">
<stop stop-color="#FFF44F"/>
<stop offset="0.06" stop-color="#FFE847"/>
<stop offset="0.168" stop-color="#FFC830"/>
<stop offset="0.304" stop-color="#FF980E"/>
<stop offset="0.356" stop-color="#FF8B16"/>
<stop offset="0.455" stop-color="#FF672A"/>
<stop offset="0.57" stop-color="#FF3647"/>
<stop offset="0.737" stop-color="#E31587"/>
</radialGradient>
<radialGradient id="paint9_radial_14814_108927" cx="0" cy="0" r="1" gradientUnits="userSpaceOnUse" gradientTransform="translate(9.91717 4.52043) scale(19.9152 19.9152)">
<stop offset="0.137" stop-color="#FFF44F"/>
<stop offset="0.48" stop-color="#FF980E"/>
<stop offset="0.592" stop-color="#FF5634"/>
<stop offset="0.655" stop-color="#FF3647"/>
<stop offset="0.904" stop-color="#E31587"/>
</radialGradient>
<radialGradient id="paint10_radial_14814_108927" cx="0" cy="0" r="1" gradientUnits="userSpaceOnUse" gradientTransform="translate(15.05 5.60101) scale(21.7982 21.7982)">
<stop offset="0.094" stop-color="#FFF44F"/>
<stop offset="0.231" stop-color="#FFE141"/>
<stop offset="0.509" stop-color="#FFAF1E"/>
<stop offset="0.626" stop-color="#FF980E"/>
</radialGradient>
<linearGradient id="paint11_linear_14814_108927" x1="18.7537" y1="3.45494" x2="3.96586" y2="18.2455" gradientUnits="userSpaceOnUse">
<stop offset="0.167" stop-color="#FFF44F" stop-opacity="0.8"/>
<stop offset="0.266" stop-color="#FFF44F" stop-opacity="0.634"/>
<stop offset="0.489" stop-color="#FFF44F" stop-opacity="0.217"/>
<stop offset="0.6" stop-color="#FFF44F" stop-opacity="0"/>
</linearGradient>
<clipPath id="clip0_14814_108927">
<rect width="21.2985" height="22" fill="white"/>
</clipPath>
</defs>
</svg>
