<svg id="Layer_1" viewBox="0 0 48 48" xmlns="http://www.w3.org/2000/svg" data-name="Layer 1"><rect fill="#eff3f9" height="29" rx="4" width="34" x="7" y="15"/><path d="m11 38v-23c-2.209 0-4 1.791-4 4v21c0 2.209 1.791 4 4 4h26c2.209 0 4-1.791 4-4h-28c-1.105 0-2-.895-2-2z" fill="#cfe0f3"/><circle cx="18" cy="25" fill="#afb4c2" r="2"/><circle cx="30" cy="25" fill="#afb4c2" r="2"/><path d="m45 36h-4v-13h4c1.105 0 2 .895 2 2v9c0 1.105-.895 2-2 2z" fill="#8c94af"/><path d="m3 36h4v-13h-4c-1.105 0-2 .895-2 2v9c0 1.105.895 2 2 2z" fill="#8c94af"/><path d="m45 32h-4v4h4c1.105 0 2-.895 2-2v-4c0 1.105-.895 2-2 2z" fill="#6f7792"/><path d="m1 30v4c0 1.105.895 2 2 2h4v-4h-4c-1.105 0-2-.895-2-2z" fill="#6f7792"/><circle cx="24" cy="6" fill="#ff3b65" r="3"/><path d="m25.5 7c-1.381 0-2.5-1.119-2.5-2.5 0-.54.175-1.037.467-1.446-1.402.252-2.467 1.472-2.467 2.946 0 1.657 1.343 3 3 3 1.474 0 2.694-1.065 2.946-2.467-.409.291-.906.467-1.446.467z" fill="#d82b50" opacity=".75"/><g fill="#08105e"><path d="m21 25c0-1.654-1.346-3-3-3s-3 1.346-3 3 1.346 3 3 3 3-1.346 3-3zm-3 1c-.551 0-1-.448-1-1s.449-1 1-1 1 .449 1 1-.449 1-1 1z"/><path d="m30 22c-1.654 0-3 1.346-3 3s1.346 3 3 3 3-1.346 3-3-1.346-3-3-3zm0 4c-.551 0-1-.448-1-1s.449-1 1-1 1 .449 1 1-.449 1-1 1z"/><path d="m28.543 33.91c-2.815 1.447-6.271 1.447-9.086 0-.492-.253-1.094-.059-1.347.433s-.059 1.094.433 1.347c1.669.857 3.556 1.311 5.457 1.311s3.788-.453 5.457-1.311c.491-.253.685-.855.433-1.347s-.855-.686-1.347-.433z"/><path d="m45 22h-3v-3c0-2.757-2.243-5-5-5h-12v-4.142c1.72-.447 3-2 3-3.858 0-2.206-1.794-4-4-4s-4 1.794-4 4c0 1.858 1.28 3.411 3 3.858v4.142h-12c-2.757 0-5 2.243-5 5v3h-3c-1.654 0-3 1.346-3 3v9c0 1.654 1.346 3 3 3h3v3c0 2.757 2.243 5 5 5h26c2.757 0 5-2.243 5-5v-3h3c1.654 0 3-1.346 3-3v-9c0-1.654-1.346-3-3-3zm-23-16c0-1.103.897-2 2-2s2 .897 2 2-.897 2-2 2-2-.897-2-2zm-19 29c-.551 0-1-.448-1-1v-9c0-.551.449-1 1-1h3v11zm37 5c0 1.654-1.346 3-3 3h-26c-1.654 0-3-1.346-3-3v-21c0-1.654 1.346-3 3-3h26c1.654 0 3 1.346 3 3zm6-6c0 .552-.449 1-1 1h-3v-11h3c.551 0 1 .449 1 1z"/></g></svg>