<svg width="108" height="30" viewBox="0 0 108 30" fill="none" xmlns="http://www.w3.org/2000/svg">
<path d="M8.02079 11.5139L4.3847 21.4597H11.8708L8.02079 11.5139ZM8.98329 9.16113L16.5763 28.7319H14.6513L12.2985 22.8499H3.84998L1.7111 28.7319H0L7.05829 9.16113H8.98329Z" fill="#0A083B"/>
<path d="M25.3457 28.7309V9.16016H35.9331V10.4435H27.1637V18.0365H33.0457V19.3198H27.1637V27.3406H36.5748V28.7309H25.3457Z" fill="#0A083B"/>
<path d="M45.4513 26.4854C46.093 26.8063 46.8416 27.0201 47.4832 27.234C48.3388 27.4479 49.3013 27.6618 50.2638 27.6618C51.6541 27.6618 52.9374 27.4479 54.0068 26.6993C54.8624 26.0576 55.2901 25.0952 55.2901 24.1327C55.2901 21.8868 53.4721 20.2827 49.9429 19.3202C46.4138 18.3577 44.5958 16.4327 44.7027 13.4383C44.7027 12.048 45.3444 10.8716 46.4138 10.0161C47.6971 9.05357 49.1943 8.51886 50.7985 8.6258C51.761 8.6258 52.6165 8.73274 53.4721 8.94663C54.2207 9.16052 54.9693 9.37441 55.611 9.69524L54.9693 11.0855C54.4346 10.8716 53.8999 10.6577 53.2582 10.4438C52.5096 10.23 51.6541 10.123 50.7985 10.123C49.6221 10.123 48.5527 10.3369 47.5902 10.9786C46.9485 11.4063 46.5207 12.4758 46.5207 13.4383C46.5207 15.6841 48.3388 17.3952 51.8679 18.3577C55.3971 19.3202 57.2151 21.2452 57.1082 24.1327C57.1082 25.5229 56.5735 26.8063 55.2901 27.6618C53.7929 28.7312 52.2957 29.0521 50.5846 29.0521C49.6221 29.0521 48.3388 28.9451 47.3763 28.7312C46.6277 28.5174 45.7721 28.1965 45.1305 27.7688L45.4513 26.4854Z" fill="#0A083B"/>
<path d="M69.0856 9.16016H67.2676V28.7309H69.0856V9.16016Z" fill="#0A083B"/>
<path d="M92.507 28.6239L87.9084 20.2823C87.9084 20.2823 86.9459 20.3893 85.6626 20.3893H82.7751V28.517H80.957V9.16016H85.9834C87.6945 9.16016 89.5125 9.48099 91.0098 10.4435C92.4 11.406 93.1486 13.0101 93.0417 14.7212C93.0417 15.8976 92.7209 16.9671 92.0792 17.9296C91.4375 18.7851 90.582 19.5337 89.5125 19.8545L94.5389 28.6239H92.507ZM85.9834 10.6574H82.6681V18.892H85.6626C87.3737 18.892 88.55 18.5712 89.5125 18.0365C90.6889 17.3948 91.2236 16.3254 91.2236 14.7212C91.2236 13.1171 90.9028 11.9407 89.8334 11.406C88.55 10.8713 87.5876 10.6574 85.9834 10.6574Z" fill="#0A083B"/>
<path fill-rule="evenodd" clip-rule="evenodd" d="M100.766 20.7525V0.948242H102.575V20.7525H100.766Z" fill="#0A083B"/>
<path fill-rule="evenodd" clip-rule="evenodd" d="M106.697 16.9487L95.8945 5.73093L97.1982 4.47559L108 15.6934L106.697 16.9487Z" fill="#0A083B"/>
</svg>
