<svg width="260" height="28" viewBox="0 0 260 28" fill="none" xmlns="http://www.w3.org/2000/svg">
<path d="M37.8475 10.334L34.2907 20.0605H41.6132L37.8475 10.334ZM38.787 8.03278L46.214 27.1758H44.3311L42.0299 21.4222H33.7657L31.674 27.1758H30L36.9042 8.03223L38.787 8.03278Z" fill="white"/>
<path d="M54.7915 27.1758V8.03223H65.148V9.28728H56.5699V16.7148H62.3235V17.9699H56.5699V25.8174H65.7753V27.1758H54.7915Z" fill="white"/>
<path d="M74.4583 24.9776C75.1036 25.2675 75.7684 25.5122 76.4478 25.7099C77.3342 25.9589 78.2476 26.0994 79.1679 26.1282C80.4564 26.2041 81.7364 25.8756 82.8291 25.1887C83.2199 24.8973 83.5369 24.5184 83.7549 24.0824C83.9728 23.6465 84.0856 23.1655 84.0842 22.6781C84.0842 20.4813 82.3058 18.9123 78.854 17.9706C75.4022 17.0289 73.6216 15.1444 73.7266 12.2154C73.7286 11.5662 73.8808 10.9263 74.1711 10.3457C74.4613 9.76499 74.8819 9.25929 75.4 8.86805C76.6173 7.9093 78.1417 7.42591 79.689 7.508C80.5704 7.50287 81.449 7.60832 82.3041 7.8219C83.022 8.00258 83.7221 8.24766 84.3959 8.55415L83.7681 9.9142C83.2447 9.70475 82.7219 9.49585 82.0941 9.2864C81.3103 9.07269 80.5009 8.96708 79.6885 8.9725C78.5816 8.92573 77.4867 9.21761 76.55 9.8092C76.2082 10.1076 75.9369 10.4784 75.756 10.8945C75.5751 11.3107 75.4889 11.7619 75.5039 12.2154C75.5039 14.4122 77.2823 16.0839 80.7341 17.0273C84.1859 17.9706 85.9648 19.8518 85.8598 22.6758C85.8846 23.3555 85.7341 24.03 85.4226 24.6346C85.1111 25.2392 84.6492 25.7533 84.0814 26.1277C82.7402 27.0781 81.1214 27.5564 79.479 27.4877C78.4251 27.4869 77.3738 27.3818 76.3406 27.1738C75.5663 26.9697 74.8262 26.6531 74.1438 26.2343L74.4583 24.9776Z" fill="white"/>
<path d="M97.5763 8.03223H95.7979V27.1758H97.5763V8.03223Z" fill="white"/>
<path d="M120.485 27.0719L115.987 18.9127C115.987 18.9127 115.048 19.0171 113.791 19.0171H110.966V26.9675H109.188V8.03336H114.106C115.832 7.97588 117.538 8.41122 119.025 9.28841C119.691 9.75302 120.225 10.3832 120.574 11.1168C120.923 11.8505 121.075 12.6623 121.014 13.4725C121.025 14.5895 120.698 15.6836 120.075 16.6109C119.46 17.4902 118.581 18.1499 117.565 18.4938L122.483 27.0714L120.485 27.0719ZM114.104 9.49786H110.861V17.5526H113.79C115.097 17.6097 116.396 17.3211 117.556 16.7159C118.707 16.0881 119.23 15.042 119.23 13.473C119.23 11.9041 118.916 10.7535 117.87 10.2301C116.685 9.70726 115.398 9.45703 114.104 9.49786Z" fill="white"/>
<path d="M129.448 0V19.3712" stroke="white" stroke-width="2"/>
<path d="M124.436 4.06543L135 15.0382" stroke="white" stroke-width="2"/>
</svg>
