<svg width="22" height="22" viewBox="0 0 22 22" fill="none" xmlns="http://www.w3.org/2000/svg">
<g clip-path="url(#clip0_14814_108906)">
<path d="M10.9403 0.00157166C4.89816 0.00157166 0 4.89973 0 10.9419C0 16.8092 4.61911 21.5977 10.4192 21.8694C10.5923 21.8776 10.7657 21.8822 10.9404 21.8822C13.7415 21.8822 16.296 20.829 18.2315 19.098C16.9491 19.9485 15.4498 20.4379 13.8475 20.4379C11.2421 20.4379 8.90877 19.1454 7.33948 17.1072C6.12974 15.6792 5.34621 13.5683 5.29284 11.1994V10.6842C5.34618 8.31529 6.1297 6.20401 7.33917 4.77636C8.9087 2.73816 11.242 1.44568 13.8471 1.44568C15.4499 1.44568 16.9495 1.93503 18.232 2.78606C16.3059 1.06304 13.7669 0.0119705 10.9814 0.00162697C10.9676 0.00162697 10.9539 0.00108528 10.9401 0.00108528L10.9403 0.00157166Z" fill="url(#paint0_linear_14814_108906)"/>
<path d="M7.33932 4.77698C8.34331 3.59175 9.63989 2.87704 11.0565 2.87704C14.2415 2.87704 16.823 6.48804 16.823 10.9423C16.823 15.3967 14.2413 19.0077 11.0565 19.0077C9.63989 19.0077 8.34331 18.2933 7.3396 17.108C8.90885 19.1462 11.242 20.4387 13.8476 20.4387C15.45 20.4387 16.9493 19.9493 18.2316 19.0988C20.471 17.0955 21.881 14.1837 21.881 10.9424C21.881 7.70156 20.4712 4.78991 18.2324 2.7868C16.9498 1.93577 15.4502 1.44642 13.8476 1.44642C11.2423 1.44642 8.90862 2.73879 7.33932 4.77698Z" fill="url(#paint1_linear_14814_108906)"/>
</g>
<defs>
<linearGradient id="paint0_linear_14814_108906" x1="9.11626" y1="0.358195" x2="9.11626" y2="21.5641" gradientUnits="userSpaceOnUse">
<stop stop-color="#FF1B2D"/>
<stop offset="0.3" stop-color="#FF1B2D"/>
<stop offset="0.614" stop-color="#FF1B2D"/>
<stop offset="1" stop-color="#A70014"/>
</linearGradient>
<linearGradient id="paint1_linear_14814_108906" x1="14.61" y1="1.60829" x2="14.61" y2="20.3638" gradientUnits="userSpaceOnUse">
<stop stop-color="#9C0000"/>
<stop offset="0.7" stop-color="#FF4B4B"/>
<stop offset="1" stop-color="#FF4B4B"/>
</linearGradient>
<clipPath id="clip0_14814_108906">
<rect width="22" height="22" fill="white"/>
</clipPath>
</defs>
</svg>
