<svg width="22" height="22" viewBox="0 0 22 22" fill="none" xmlns="http://www.w3.org/2000/svg">
<g clip-path="url(#clip0_14812_108832)">
<path d="M22 11C22 13.9174 20.8411 16.7153 18.7782 18.7782C16.7153 20.8411 13.9174 22 11 22C8.08262 22 5.28473 20.8411 3.22183 18.7782C1.15892 16.7153 1.0105e-07 13.9174 0 11C1.0105e-07 8.08262 1.15892 5.28473 3.22183 3.22183C5.28473 1.15893 8.08262 1.0105e-07 11 0C13.9174 1.0105e-07 16.7153 1.15893 18.7782 3.22183C20.8411 5.28473 22 8.08262 22 11Z" fill="url(#paint0_radial_14812_108832)"/>
<path d="M11 0.573669C10.9112 0.573669 10.8396 0.645193 10.8396 0.734045V2.58392C10.8396 2.67277 10.9112 2.74429 11 2.74429C11.0889 2.74429 11.1604 2.67277 11.1604 2.58392V0.734045C11.1604 0.645193 11.0889 0.573669 11 0.573669ZM9.95083 0.639981C9.9402 0.638838 9.92926 0.638838 9.91821 0.640114C9.82984 0.649334 9.76612 0.727899 9.77535 0.816271L9.85619 1.59018C9.86541 1.67855 9.94398 1.74227 10.0323 1.73304C10.1207 1.72382 10.1844 1.64525 10.1752 1.55688L10.0944 0.782982C10.0864 0.705656 10.0252 0.647201 9.95083 0.639981ZM12.0565 0.640743C11.9822 0.647906 11.921 0.706357 11.9128 0.783671L11.8314 1.55751C11.8221 1.64588 11.8859 1.72451 11.9742 1.73381C12.0626 1.7431 12.1412 1.67944 12.1504 1.59108L12.2318 0.817173C12.2411 0.728809 12.1774 0.650238 12.0891 0.640948C12.078 0.639805 12.0672 0.639798 12.0565 0.640743ZM8.87306 0.796271C8.86239 0.796355 8.85153 0.797414 8.84068 0.7997C8.75375 0.818103 8.69858 0.902912 8.71698 0.989836L9.1001 2.79957C9.1185 2.88649 9.20331 2.94166 9.29023 2.92326C9.37715 2.90485 9.43232 2.82011 9.41393 2.73319L9.03081 0.923392C9.01469 0.847331 8.94777 0.795688 8.87306 0.796271ZM13.1342 0.797795C13.0595 0.797033 12.9926 0.848828 12.9764 0.924874L12.592 2.73439C12.5735 2.8213 12.6286 2.90613 12.7155 2.9246C12.8024 2.94308 12.8873 2.88794 12.9057 2.80104L13.2902 0.991524C13.3086 0.904616 13.2535 0.81978 13.1666 0.80132C13.1558 0.799034 13.1449 0.797795 13.1342 0.797795ZM7.8445 1.08629C7.82374 1.08438 7.8023 1.08667 7.78117 1.09368C7.69667 1.12115 7.65072 1.21122 7.67818 1.29572L7.91864 2.03578C7.94611 2.12028 8.03625 2.16623 8.12075 2.13877C8.20525 2.1113 8.25113 2.02116 8.22367 1.93666L7.98322 1.1966C7.96264 1.13323 7.90679 1.09158 7.8445 1.08629ZM14.157 1.08667C14.0947 1.09196 14.0388 1.13362 14.0182 1.197L13.7776 1.93699C13.7502 2.02148 13.7961 2.11163 13.8806 2.1391C13.9651 2.16657 14.0552 2.12066 14.0827 2.03618L14.3233 1.29612C14.3508 1.21162 14.3048 1.12147 14.2204 1.094C14.1992 1.08715 14.1777 1.08491 14.157 1.08667ZM6.82737 1.45849C6.80653 1.45888 6.78545 1.46345 6.76515 1.47248C6.684 1.50856 6.64766 1.60295 6.68375 1.68414L7.43509 3.37454C7.47117 3.45573 7.56557 3.49203 7.64675 3.45594C7.7279 3.41986 7.76431 3.32547 7.72822 3.24428L6.97681 1.55388C6.94976 1.49298 6.88987 1.45728 6.82737 1.45849ZM15.1856 1.46417C15.1231 1.46303 15.0632 1.4985 15.036 1.55934L14.2824 3.24871C14.2462 3.32985 14.2824 3.42431 14.3635 3.46051C14.4446 3.4967 14.5391 3.46053 14.5753 3.37939L15.3289 1.69003C15.3651 1.60888 15.3289 1.51442 15.2478 1.47822C15.2275 1.46919 15.2064 1.46463 15.1856 1.46417ZM5.88326 1.95803C5.85248 1.95574 5.82075 1.9626 5.7919 1.97929C5.71495 2.02372 5.68878 2.12142 5.7332 2.19836L6.12227 2.87225C6.1667 2.9492 6.26439 2.97537 6.34134 2.93095C6.41828 2.88652 6.44446 2.78882 6.40003 2.71188L6.01097 2.03799C5.98319 1.98989 5.93458 1.96162 5.88326 1.95803ZM16.1167 1.95803C16.0654 1.96146 16.0169 1.98988 15.9891 2.03798L15.6 2.71186C15.5555 2.78881 15.5818 2.88651 15.6587 2.93093C15.7357 2.97536 15.8334 2.94918 15.8778 2.87224L16.2669 2.19835C16.3113 2.1214 16.2851 2.02371 16.2082 1.97928C16.1793 1.96263 16.1475 1.9559 16.1167 1.95803ZM4.9665 2.52983C4.93563 2.53097 4.90473 2.54087 4.87776 2.56042C4.80584 2.61259 4.78994 2.71249 4.84213 2.7844L5.92834 4.28176C5.98052 4.35368 6.08048 4.36958 6.1524 4.31742C6.22432 4.26525 6.24022 4.16536 6.18802 4.09344L5.10174 2.59608C5.06913 2.55113 5.01791 2.52807 4.9665 2.52983ZM17.045 2.53798C16.9936 2.53607 16.9424 2.55912 16.9097 2.60401L15.8214 4.09991C15.7691 4.17176 15.7849 4.2717 15.8568 4.32397C15.9286 4.37623 16.0285 4.36051 16.0808 4.28869L17.169 2.79278C17.2213 2.72093 17.2055 2.621 17.1337 2.56873C17.1067 2.54915 17.0758 2.53908 17.045 2.53798ZM4.14704 3.21706C4.10611 3.21477 4.06433 3.22845 4.03131 3.25817C3.96528 3.31762 3.95997 3.41861 4.01943 3.48465L4.54007 4.06302C4.59951 4.12906 4.70051 4.13437 4.76655 4.07491C4.83258 4.01546 4.83789 3.9144 4.77843 3.84836L4.25786 3.27006C4.22814 3.23703 4.18798 3.21921 4.14704 3.21706ZM17.8541 3.2182C17.8132 3.22049 17.7731 3.2382 17.7433 3.27122L17.2227 3.84945C17.1632 3.91548 17.1685 4.01654 17.2345 4.076C17.3006 4.13545 17.4016 4.13012 17.461 4.06411L17.9817 3.48588C18.0412 3.41985 18.0358 3.31878 17.9698 3.25934C17.9368 3.22962 17.8951 3.21606 17.8541 3.2182ZM3.36165 3.97148C3.32071 3.97376 3.28062 3.99148 3.2509 4.0245C3.19145 4.09054 3.19677 4.19153 3.26279 4.25098L4.63763 5.48863C4.70367 5.54808 4.80466 5.54276 4.8641 5.47674C4.92355 5.41071 4.91831 5.30971 4.85225 5.25027L3.47735 4.01261C3.44431 3.98289 3.40259 3.96933 3.36165 3.97148ZM18.6433 3.97689C18.6024 3.9746 18.5606 3.98824 18.5275 4.01794L17.1519 5.25462C17.0858 5.31402 17.0804 5.41502 17.1398 5.4811C17.1992 5.54717 17.3002 5.55254 17.3663 5.49314L18.742 4.25645C18.8081 4.19705 18.8135 4.09605 18.7541 4.02998C18.7244 3.99694 18.6843 3.97907 18.6433 3.97689ZM2.70852 4.8113C2.65711 4.80939 2.60584 4.83256 2.57321 4.87747C2.52098 4.94935 2.53682 5.04922 2.60872 5.10145L3.23824 5.55883C3.31012 5.61106 3.40999 5.59529 3.46222 5.5234C3.51445 5.45152 3.49864 5.35157 3.42679 5.29934L2.79726 4.84196C2.77033 4.82238 2.73937 4.8124 2.70852 4.8113ZM19.2958 4.81712C19.265 4.81827 19.2341 4.82814 19.2071 4.84772L18.5773 5.30469C18.5054 5.35686 18.4895 5.45682 18.5417 5.52874C18.5938 5.60066 18.6937 5.61649 18.7656 5.56433L19.3955 5.10736C19.4674 5.05519 19.4833 4.95529 19.4311 4.88338C19.3985 4.83843 19.3473 4.81536 19.2958 4.81712ZM2.09817 5.70711C2.04686 5.71054 1.99831 5.73896 1.97054 5.78705C1.92611 5.864 1.95229 5.9617 2.02923 6.00612L3.63124 6.93106C3.70819 6.97548 3.80589 6.94931 3.85031 6.87236C3.89474 6.79542 3.86856 6.69772 3.79162 6.65329L2.18961 5.72835C2.16077 5.7117 2.12896 5.70497 2.09817 5.70711ZM19.9018 5.70711C19.871 5.70482 19.8393 5.71168 19.8104 5.72837L18.2084 6.65331C18.1314 6.69773 18.1053 6.79543 18.1497 6.87238C18.1941 6.94932 18.2918 6.9755 18.3688 6.93107L19.9708 6.00614C20.0478 5.96171 20.074 5.86401 20.0295 5.78707C20.0018 5.73898 19.9532 5.71069 19.9018 5.70711ZM1.63671 6.66194C1.57421 6.66042 1.51428 6.6962 1.48713 6.75705C1.45094 6.83819 1.48711 6.93266 1.56826 6.96885L2.27896 7.28586C2.36011 7.32205 2.45458 7.28588 2.49077 7.20474C2.52696 7.12359 2.49072 7.02913 2.40958 6.99294L1.69894 6.67593C1.67867 6.66686 1.65754 6.66236 1.63671 6.66194ZM20.3664 6.66854C20.3456 6.66892 20.3244 6.67349 20.3041 6.68252L19.5933 6.99898C19.5121 7.03513 19.4758 7.12954 19.5119 7.21071C19.5481 7.29188 19.6426 7.32817 19.7237 7.29204L20.4346 6.97551C20.5158 6.93939 20.552 6.84495 20.5159 6.76378C20.4888 6.7029 20.4289 6.66729 20.3664 6.66854ZM1.22543 7.65992C1.16314 7.66514 1.10729 7.70675 1.08665 7.77011C1.05914 7.85459 1.10494 7.94477 1.18943 7.97229L2.94829 8.5454C3.03276 8.57291 3.12294 8.52708 3.15047 8.44262C3.17798 8.35814 3.13218 8.26796 3.04768 8.24044L1.28883 7.66733C1.26772 7.66043 1.24619 7.65817 1.22543 7.65992ZM20.7769 7.66678C20.7562 7.66488 20.7347 7.66716 20.7136 7.67417L18.9543 8.24604C18.8698 8.27351 18.8239 8.36365 18.8514 8.44815C18.8789 8.53265 18.969 8.57854 19.0535 8.55108L20.8127 7.97921C20.8972 7.95174 20.9432 7.8616 20.9157 7.7771C20.8951 7.71373 20.8392 7.67207 20.7769 7.66678ZM0.96919 8.70752C0.894474 8.70676 0.827469 8.75862 0.811307 8.83467C0.792828 8.92158 0.84796 9.0064 0.934857 9.02487L1.69603 9.18663C1.78294 9.20511 1.86776 9.14998 1.88623 9.06308C1.90471 8.97617 1.84958 8.89135 1.76268 8.87287L1.00158 8.71112C0.990721 8.70883 0.979858 8.70752 0.96919 8.70752ZM21.0312 8.70904C21.0205 8.70913 21.0097 8.71057 20.9989 8.71247L20.2377 8.87416C20.1508 8.89264 20.0957 8.97739 20.1141 9.0643C20.1326 9.15121 20.2174 9.20638 20.3043 9.18792L21.0654 9.02623C21.1524 9.00775 21.2075 8.92294 21.1891 8.83602C21.1729 8.75998 21.1059 8.70841 21.0312 8.70904ZM0.775244 9.76127C0.70087 9.7684 0.639654 9.82675 0.631485 9.90406C0.62215 9.99242 0.68571 10.0711 0.774067 10.0804L2.6137 10.2749C2.70205 10.2843 2.78072 10.2206 2.79006 10.1323C2.79939 10.0439 2.73577 9.96524 2.64741 9.95591L0.807778 9.76141C0.796729 9.76026 0.785874 9.76026 0.775244 9.76127ZM21.2265 9.7751C21.2159 9.77396 21.2049 9.77396 21.1939 9.77523L19.354 9.96724C19.2657 9.97646 19.202 10.055 19.2112 10.1434C19.2204 10.2318 19.299 10.2955 19.3873 10.2863L21.2272 10.0943C21.3155 10.085 21.3792 10.0065 21.37 9.91809C21.362 9.84077 21.3009 9.78233 21.2265 9.7751ZM0.744096 10.8399C0.655244 10.8399 0.583725 10.9114 0.583725 11.0003C0.583725 11.0891 0.655244 11.1607 0.744096 11.1607H1.52223C1.61108 11.1607 1.68267 11.0891 1.68267 11.0003C1.68267 10.9114 1.61108 10.8399 1.52223 10.8399H0.744096ZM20.4778 10.8399C20.3889 10.8399 20.3174 10.9114 20.3174 11.0003C20.3174 11.0891 20.3889 11.1607 20.4778 11.1607H21.2559C21.3448 11.1607 21.4163 11.0891 21.4163 11.0003C21.4163 10.9114 21.3448 10.8399 21.2559 10.8399H20.4778ZM2.64526 11.7142C2.63463 11.7131 2.62377 11.7131 2.61272 11.7143L0.772813 11.9063C0.684441 11.9156 0.62074 11.9941 0.629953 12.0825C0.639173 12.1709 0.717738 12.2346 0.806106 12.2254L2.64601 12.0333C2.73439 12.0241 2.79809 11.9456 2.78887 11.8572C2.7808 11.7799 2.71963 11.7214 2.64526 11.7142ZM19.3538 11.7255C19.2794 11.7327 19.2182 11.791 19.21 11.8683C19.2007 11.9567 19.2642 12.0354 19.3526 12.0447L21.1922 12.2392C21.2806 12.2485 21.3593 12.1849 21.3686 12.0965C21.3779 12.0082 21.3143 11.9295 21.2259 11.9202L19.3864 11.7257C19.3753 11.7245 19.3644 11.7245 19.3538 11.7255ZM1.72814 12.809C1.71748 12.8091 1.70662 12.8101 1.69576 12.8124L0.934586 12.9741C0.847674 12.9926 0.79258 13.0774 0.811036 13.1643C0.829515 13.2512 0.914332 13.3063 1.00124 13.2879L1.76242 13.1262C1.84932 13.1078 1.90442 13.0229 1.88596 12.936C1.86981 12.86 1.80286 12.8084 1.72814 12.809ZM20.2717 12.8105C20.1969 12.8098 20.13 12.8615 20.1138 12.9376C20.0954 13.0245 20.1504 13.1093 20.2373 13.1278L20.9985 13.2896C21.0854 13.308 21.1702 13.253 21.1887 13.1661C21.2072 13.0792 21.1521 12.9943 21.0652 12.9758L20.304 12.814C20.2932 12.8118 20.2823 12.8105 20.2717 12.8105ZM3.00989 13.4422C2.98912 13.4403 2.96768 13.4426 2.94656 13.4496L1.18729 14.0214C1.10279 14.0489 1.0569 14.1391 1.08437 14.2235C1.11184 14.308 1.20198 14.3539 1.28648 14.3265L3.04568 13.7546C3.13018 13.7271 3.17614 13.637 3.14867 13.5525C3.12806 13.4891 3.07218 13.4475 3.00989 13.4422ZM18.9884 13.4479C18.9261 13.4531 18.8703 13.4947 18.8496 13.5581C18.8221 13.6425 18.8679 13.7327 18.9524 13.7602L20.7113 14.3333C20.7957 14.3609 20.8859 14.315 20.9134 14.2306C20.941 14.1461 20.8951 14.0559 20.8106 14.0284L19.0518 13.4553C19.0307 13.4484 19.0092 13.4461 18.9884 13.4479ZM2.33856 14.6947C2.31772 14.6951 2.29663 14.6996 2.27634 14.7086L1.56542 15.0252C1.48425 15.0613 1.44802 15.1557 1.48416 15.2369C1.52031 15.3181 1.61472 15.3543 1.69589 15.3181L2.40681 15.0017C2.48798 14.9656 2.52421 14.8711 2.48807 14.79C2.46098 14.7291 2.40106 14.6935 2.33856 14.6947ZM19.6589 14.7008C19.5964 14.6993 19.5365 14.7351 19.5093 14.7959C19.4731 14.8771 19.5093 14.9715 19.5904 15.0077L20.3011 15.3247C20.3822 15.3609 20.4767 15.3248 20.5129 15.2436C20.5491 15.1625 20.5129 15.068 20.4318 15.0318L19.7211 14.7148C19.7008 14.7057 19.6797 14.7012 19.6589 14.7008ZM3.72268 15.0484C3.69189 15.0461 3.6601 15.0529 3.63124 15.0696L2.02923 15.9945C1.95229 16.039 1.92611 16.1367 1.97054 16.2136C2.01497 16.2906 2.11266 16.3167 2.18961 16.2723L3.79162 15.3474C3.86856 15.303 3.89474 15.2053 3.85031 15.1283C3.82254 15.0802 3.774 15.0519 3.72268 15.0484ZM18.2774 15.0484C18.2261 15.0518 18.1775 15.0802 18.1497 15.1283C18.1053 15.2052 18.1314 15.303 18.2084 15.3474L19.8104 16.2723C19.8874 16.3167 19.9851 16.2906 20.0295 16.2136C20.074 16.1367 20.0478 16.039 19.9708 15.9945L18.3688 15.0696C18.3399 15.053 18.3082 15.0462 18.2774 15.0484ZM3.32309 16.4057C3.29223 16.4068 3.26133 16.4168 3.23436 16.4364L2.60456 16.8933C2.53264 16.9455 2.51674 17.0454 2.5689 17.1173C2.62108 17.1892 2.72097 17.2051 2.79288 17.1529L3.42275 16.696C3.49467 16.6438 3.51057 16.5439 3.45841 16.472C3.4258 16.427 3.37451 16.4039 3.32309 16.4057ZM18.6731 16.4111C18.6217 16.4092 18.5704 16.4324 18.5378 16.4773C18.4856 16.5491 18.5014 16.6491 18.5733 16.7013L19.2028 17.1587C19.2747 17.2109 19.3746 17.1951 19.4268 17.1232C19.479 17.0513 19.4632 16.9514 19.3914 16.8992L18.7619 16.4418C18.7349 16.4222 18.704 16.4122 18.6731 16.4111ZM4.7495 16.4665C4.70857 16.4642 4.66681 16.4778 4.63377 16.5075L3.25803 17.7442C3.19196 17.8036 3.18659 17.9046 3.24599 17.9707C3.30539 18.0367 3.40639 18.0421 3.47247 17.9827L4.84821 16.746C4.91428 16.6866 4.91965 16.5856 4.86025 16.5196C4.83057 16.4865 4.79044 16.4686 4.7495 16.4665ZM17.2467 16.4709C17.2058 16.4732 17.1656 16.4909 17.1359 16.5239C17.0764 16.5899 17.0818 16.6909 17.1478 16.7504L18.5226 17.988C18.5887 18.0475 18.6897 18.0422 18.7492 17.9761C18.8086 17.9101 18.8033 17.8091 18.7373 17.7497L17.3624 16.512C17.3293 16.4823 17.2876 16.4687 17.2467 16.4709ZM6.05464 17.6458C6.00323 17.6439 5.95192 17.6669 5.91926 17.7118L4.83104 19.2077C4.77877 19.2795 4.7945 19.3795 4.86632 19.4317C4.93817 19.484 5.03811 19.4683 5.09037 19.3964L6.17859 17.9005C6.23086 17.8287 6.21513 17.7287 6.14331 17.6765C6.11637 17.6569 6.08549 17.6468 6.05464 17.6458ZM15.9364 17.6525C15.9056 17.6536 15.8747 17.6635 15.8477 17.6831C15.7758 17.7352 15.7599 17.8351 15.812 17.907L16.8982 19.4044C16.9504 19.4763 17.0503 19.4922 17.1222 19.4401C17.1942 19.3879 17.2101 19.288 17.1579 19.2161L16.0717 17.7187C16.0391 17.6738 15.9879 17.6507 15.9364 17.6525ZM4.64983 17.8835C4.60889 17.8858 4.56874 17.9035 4.53902 17.9365L4.01837 18.5148C3.95891 18.5808 3.96418 18.6819 4.03022 18.7413C4.09625 18.8008 4.19724 18.7954 4.25669 18.7294L4.7774 18.1512C4.83687 18.0851 4.83153 17.9841 4.76552 17.9246C4.73248 17.8949 4.69077 17.8814 4.64983 17.8835ZM17.3492 17.8843C17.3083 17.882 17.2666 17.8957 17.2336 17.9254C17.1675 17.9848 17.1622 18.0858 17.2216 18.1519L17.7422 18.7302C17.8016 18.7963 17.9026 18.8016 17.9687 18.7421C18.0347 18.6827 18.04 18.5816 17.9806 18.5156L17.46 17.9373C17.4303 17.9042 17.3902 17.8864 17.3492 17.8843ZM7.57429 18.5258C7.51179 18.5242 7.45193 18.56 7.42478 18.6209L6.67108 20.3102C6.63489 20.3914 6.67106 20.4858 6.75221 20.522C6.83335 20.5582 6.92781 20.5221 6.96401 20.4409L7.7177 18.7515C7.7539 18.6704 7.71772 18.5759 7.63658 18.5397C7.61631 18.5307 7.59512 18.5262 7.57429 18.5258ZM14.4156 18.5304C14.3947 18.5308 14.3736 18.5353 14.3533 18.5443C14.2721 18.5804 14.2358 18.6748 14.2719 18.756L15.0232 20.4464C15.0593 20.5275 15.1537 20.5639 15.2349 20.5278C15.3161 20.4917 15.3524 20.3973 15.3163 20.3161L14.565 18.6257C14.5379 18.5649 14.478 18.5292 14.4156 18.5304ZM6.2499 19.0481C6.19859 19.0515 6.15003 19.0799 6.12227 19.128L5.7332 19.8019C5.68878 19.8789 5.71495 19.9766 5.7919 20.021C5.86884 20.0654 5.96654 20.0392 6.01097 19.9623L6.40003 19.2884C6.44446 19.2115 6.41828 19.1138 6.34134 19.0693C6.31249 19.0527 6.28069 19.0459 6.2499 19.0481ZM15.7501 19.0481C15.7193 19.0458 15.6876 19.0527 15.6587 19.0693C15.5818 19.1138 15.5556 19.2115 15.6 19.2884L15.9891 19.9623C16.0335 20.0392 16.1312 20.0654 16.2082 20.021C16.2851 19.9766 16.3113 19.8789 16.2669 19.8019L15.8778 19.128C15.85 19.0799 15.8014 19.0517 15.7501 19.0481ZM9.25216 19.0722C9.17744 19.0715 9.1105 19.1233 9.09434 19.1993L8.70992 21.0088C8.69144 21.0957 8.74657 21.1806 8.83347 21.199C8.92038 21.2175 9.00521 21.1624 9.02367 21.0755L9.4081 19.266C9.42658 19.1791 9.37145 19.0942 9.28455 19.0758C9.27369 19.0735 9.26282 19.0722 9.25216 19.0722ZM12.7422 19.0734C12.7315 19.0735 12.7207 19.0745 12.7099 19.0768C12.6229 19.0952 12.5678 19.18 12.5862 19.2669L12.9693 21.0767C12.9877 21.1636 13.0725 21.2188 13.1594 21.2004C13.2463 21.182 13.3015 21.0972 13.2831 21.0102L12.8999 19.2006C12.8838 19.1245 12.8169 19.0728 12.7422 19.0734ZM11 19.2559C10.9112 19.2559 10.8396 19.3274 10.8396 19.4163V21.2662C10.8396 21.355 10.9112 21.4265 11 21.4265C11.0889 21.4265 11.1604 21.355 11.1604 21.2662V19.4163C11.1604 19.3274 11.0889 19.2559 11 19.2559ZM8.0561 19.8537C7.99381 19.859 7.93792 19.9006 7.91732 19.964L7.67679 20.704C7.64932 20.7885 7.69523 20.8787 7.77972 20.9062C7.86422 20.9336 7.95436 20.8876 7.98183 20.8032L8.22236 20.0632C8.24983 19.9787 8.20391 19.8885 8.11943 19.8611C8.09832 19.8542 8.07686 19.8519 8.0561 19.8537ZM13.9427 19.854C13.9219 19.8521 13.9005 19.8544 13.8793 19.8614C13.7948 19.8889 13.7489 19.979 13.7763 20.0635L14.0168 20.8036C14.0443 20.8881 14.1344 20.9339 14.2189 20.9065C14.3034 20.879 14.3494 20.7889 14.3219 20.7044L14.0814 19.9644C14.0608 19.901 14.005 19.8593 13.9427 19.854ZM9.99333 20.2662C9.91895 20.2734 9.85769 20.3318 9.84956 20.4091L9.76823 21.183C9.75893 21.2714 9.82259 21.3499 9.91096 21.3592C9.99932 21.3685 10.078 21.3049 10.0873 21.2165L10.1686 20.4427C10.1779 20.3543 10.1142 20.2757 10.0259 20.2664C10.0148 20.2652 10.004 20.2652 9.99333 20.2662ZM12.0002 20.267C11.9896 20.2658 11.9787 20.2658 11.9676 20.2671C11.8793 20.2763 11.8155 20.3549 11.8248 20.4433L11.9056 21.2172C11.9148 21.3056 11.9934 21.3693 12.0818 21.36C12.1701 21.3508 12.2339 21.2723 12.2246 21.1839L12.1439 20.41C12.1358 20.3327 12.0746 20.2742 12.0002 20.267Z" fill="#F4F2F3"/>
<g opacity="0.409" filter="url(#filter0_f_14812_108832)">
<path d="M18.5165 4.58496L9.74211 9.68291L4.19432 18.4167L12.3103 12.4053L18.5165 4.58496Z" fill="black"/>
</g>
<path d="M12.2575 12.3169L9.74249 9.68308L18.6643 3.6814L12.2575 12.3169Z" fill="#FF5150"/>
<path d="M12.2575 12.3169L9.7425 9.68304L3.33575 18.3185L12.2575 12.3169Z" fill="#F1F1F1"/>
<path opacity="0.243" d="M3.33575 18.3186L12.2575 12.3169L18.6643 3.6814L3.33575 18.3186Z" fill="black"/>
</g>
<defs>
<filter id="filter0_f_14812_108832" x="3.521" y="3.91164" width="15.6688" height="15.1784" filterUnits="userSpaceOnUse" color-interpolation-filters="sRGB">
<feFlood flood-opacity="0" result="BackgroundImageFix"/>
<feBlend mode="normal" in="SourceGraphic" in2="BackgroundImageFix" result="shape"/>
<feGaussianBlur stdDeviation="0.336661" result="effect1_foregroundBlur_14812_108832"/>
</filter>
<radialGradient id="paint0_radial_14812_108832" cx="0" cy="0" r="1" gradientUnits="userSpaceOnUse" gradientTransform="translate(11.0496 9.39606) scale(11.9352 11.9352)">
<stop stop-color="#06C2E7"/>
<stop offset="0.25" stop-color="#0DB8EC"/>
<stop offset="0.5" stop-color="#12AEF1"/>
<stop offset="0.75" stop-color="#1F86F9"/>
<stop offset="1" stop-color="#107DDD"/>
</radialGradient>
<clipPath id="clip0_14812_108832">
<rect width="22" height="22" fill="white"/>
</clipPath>
</defs>
</svg>
