<svg width="22" height="22" viewBox="0 0 22 22" fill="none" xmlns="http://www.w3.org/2000/svg">
<g clip-path="url(#clip0_14814_108889)">
<path d="M11 22C17.0751 22 22 17.0751 22 11C22 4.92487 17.0751 0 11 0C4.92487 0 0 4.92487 0 11C0 17.0751 4.92487 22 11 22Z" fill="#054E9D"/>
<path d="M6.91368 10.0074L7.25743 11.9453H6.72891L6.50977 10.4371H6.45606L6.23477 11.9453H5.70626L6.05001 10.0074H6.91368ZM9.42305 11.9453H9.91719L9.8377 10.0074H9.01055L8.86446 11.0773H8.82149L8.6754 10.0074H7.84825L7.76876 11.9453H8.2629L8.28653 10.4887H8.33594L8.58516 11.9453H9.10508L9.3543 10.4887H9.40372L9.42305 11.9453ZM12.4652 11.5178V11.55L12.4674 11.5822L12.4717 11.6123L12.4781 11.6424L12.4867 11.6703L12.4975 11.6982L12.5082 11.724L12.5211 11.7498L12.5361 11.7734L12.5533 11.7971L12.5705 11.8185L12.5898 11.84L12.6092 11.8594L12.6307 11.8787L12.6543 11.898L12.6779 11.9152L12.7037 11.9324L12.7295 11.9474L12.7553 11.9625L12.7832 11.9754L12.8111 11.9883L12.8391 11.999L12.8691 12.0098L12.8992 12.0183L12.9293 12.0269L12.9594 12.0334L13.0217 12.0441L13.0861 12.0506L13.1506 12.0527L13.215 12.0506L13.2795 12.0441L13.3418 12.0334L13.3719 12.0269L13.402 12.0183L13.432 12.0098L13.4621 11.999L13.49 11.9883L13.518 11.9775L13.5459 11.9646L13.5717 11.9517L13.5975 11.9367L13.6232 11.9217L13.6469 11.9045L13.6705 11.8873L13.692 11.868L13.7113 11.8486L13.7307 11.8271L13.7479 11.8057L13.765 11.782L13.7801 11.7584L13.793 11.7326L13.8037 11.7068L13.8145 11.6789L13.8231 11.651L13.8295 11.6209L13.8338 11.5908L13.8359 11.5586V11.5264V10.0074H13.2924V11.492V11.5006V11.5092V11.5178V11.5264L13.2902 11.5328L13.2988 11.5371L13.2967 11.5435L13.2945 11.55L13.2924 11.5564L13.2902 11.5629L13.2859 11.5693L13.2816 11.5758L13.2773 11.5822L13.2731 11.5887L13.2688 11.5951L13.2645 11.6016L13.2602 11.6058L13.2537 11.6101L13.2473 11.6144L13.2408 11.6187L13.2344 11.623L13.2279 11.6273L13.2215 11.6316L13.215 11.6359L13.2086 11.6381L13.2022 11.6402L13.1957 11.6424L13.1893 11.6445L13.1807 11.6467H13.1721H13.1635H13.1549H13.1463H13.1377H13.1291L13.1205 11.6445L13.1141 11.6424L13.1076 11.6402L13.1012 11.6381L13.0947 11.6359L13.0883 11.6316L13.0818 11.6273L13.0754 11.623L13.069 11.6187L13.0625 11.6144L13.0561 11.6101L13.0496 11.6058L13.0453 11.6016L13.041 11.5951L13.0367 11.5887L13.0324 11.5822L13.0281 11.5758L13.0238 11.5693L13.0195 11.5629V11.5586L13.0174 11.5521L13.0152 11.5457L13.0131 11.5392L13.0109 11.5328L13.0088 11.5264V11.5178V11.5092V11.5006V11.492V10.0074H12.4652V11.5178ZM16.1563 10.0074H15.6857V11.2191H15.675L15.125 10.0074H14.5449V11.9453H15.0154V10.8131H15.0262L15.5397 11.9453H16.1563V10.0074ZM10.493 11.5629V11.5758V11.5887L10.4951 11.6016L10.4973 11.6144L10.4994 11.6273L10.5016 11.6402L10.5037 11.6531L10.508 11.6639L10.5123 11.6746L10.5166 11.6853L10.5209 11.6961L10.5252 11.7068L10.5316 11.7176L10.5381 11.7283L10.551 11.7498L10.566 11.7691L10.5811 11.7885L10.5982 11.8057L10.6176 11.8228L10.6369 11.84L10.6584 11.8551L10.6799 11.8701L10.7035 11.8851L10.7272 11.898L10.7529 11.9109L10.7787 11.9217L10.8045 11.9324L10.8604 11.9517L10.9184 11.9668L10.9785 11.9797L11.0387 11.9883L11.101 11.9947L11.1633 11.9969L11.2256 11.9947L11.2879 11.9904L11.3502 11.9818L11.4104 11.9711L11.4684 11.956L11.4963 11.9474L11.5242 11.9367L11.5522 11.926L11.5779 11.9152L11.6037 11.9023L11.6295 11.8894L11.6531 11.8744L11.6768 11.8594L11.6982 11.8422L11.7197 11.825L11.7391 11.8078L11.7584 11.7885L11.7756 11.7691L11.7928 11.7476L11.8078 11.7262L11.8207 11.7025L11.8336 11.6789L11.8443 11.6531L11.8529 11.6273L11.8594 11.6016L11.8658 11.5736L11.8701 11.5457L11.8766 11.4705L11.8787 11.4017L11.8766 11.3373L11.8723 11.2793L11.868 11.2514L11.8637 11.2256L11.8594 11.1998L11.8529 11.1762L11.8465 11.1525L11.84 11.131L11.8315 11.1096L11.8229 11.0902L11.8143 11.0709L11.8035 11.0537L11.7928 11.0365L11.782 11.0193L11.7713 11.0043L11.7584 10.9892L11.7455 10.9742L11.7326 10.9613L11.7197 10.9484L11.7047 10.9355L11.6897 10.9248L11.6746 10.9141L11.6445 10.8926L11.6123 10.8732L11.5801 10.856L11.5457 10.8389L11.4748 10.8066L11.3309 10.7422L11.2943 10.725L11.26 10.7057L11.2256 10.6842L11.1912 10.6605L11.159 10.6348L11.1268 10.6068L11.1117 10.5918L11.0967 10.5767L11.0816 10.5596L11.0666 10.5424L11.0602 10.5273L11.0537 10.5123L11.0494 10.4994L11.0451 10.4865L11.043 10.4736L11.0408 10.4607V10.4543V10.4478V10.4414V10.4349V10.4285V10.4221V10.4178V10.4135V10.4092L11.043 10.4049L11.0451 10.4006L11.0473 10.3963L11.0494 10.392L11.0516 10.3877L11.0537 10.3834L11.0559 10.3791L11.058 10.3748L11.0602 10.3705L11.0623 10.3662L11.0645 10.3619L11.0709 10.3555L11.0773 10.349L11.0838 10.3426L11.0902 10.3361L11.0967 10.3318L11.1031 10.3275L11.1096 10.3232L11.116 10.3189L11.1225 10.3146L11.1289 10.3125L11.1354 10.3103L11.1418 10.3082L11.1482 10.306L11.1547 10.3039H11.1611H11.1676H11.1848L11.202 10.306L11.217 10.3082L11.232 10.3103L11.2449 10.3125L11.2514 10.3146L11.2578 10.3168L11.2643 10.3189L11.2686 10.3211L11.2729 10.3232L11.2772 10.3254L11.2815 10.3275L11.2857 10.3297L11.29 10.3318L11.2943 10.334L11.2986 10.3383L11.3029 10.3426L11.3072 10.3469L11.3094 10.3512L11.3115 10.3555L11.3137 10.3598L11.3158 10.3641L11.318 10.3683L11.3201 10.3726L11.3223 10.3769L11.3244 10.3812L11.3266 10.3855L11.3287 10.3963L11.3309 10.407L11.333 10.4178L11.3352 10.4285L11.3373 10.4521V10.4779L11.333 10.5896H11.8272V10.3211V10.3103V10.2996L11.825 10.2889L11.8229 10.2781L11.8207 10.2674L11.8186 10.2566L11.8164 10.2459L11.8143 10.2351L11.81 10.2266L11.8057 10.218L11.8014 10.2094L11.7971 10.2008L11.7928 10.1922L11.7885 10.1836L11.7777 10.1664L11.7648 10.1492L11.7498 10.132L11.7348 10.117L11.7176 10.1019L11.7004 10.0869L11.6811 10.0719L11.6617 10.059L11.6402 10.0461L11.6188 10.0332L11.5951 10.0224L11.5479 10.001L11.4963 9.98163L11.4426 9.96659L11.3867 9.9537L11.3309 9.94296L11.2729 9.93651L11.2148 9.93221L11.1568 9.93007L11.0988 9.93221L11.0408 9.93651L10.985 9.9451L10.9291 9.95585L10.8754 9.97089L10.8496 9.97948L10.8238 9.98807L10.7981 9.99882L10.7744 10.0096L10.7508 10.0224L10.7293 10.0353L10.7078 10.0482L10.6863 10.0633L10.667 10.0783L10.6477 10.0955L10.6305 10.1127L10.6133 10.132L10.5982 10.1514L10.5832 10.1728L10.5703 10.1943L10.5596 10.2158L10.5488 10.2394L10.5402 10.2631L10.5338 10.2889L10.5273 10.3146L10.5231 10.3512L10.5188 10.3898L10.5166 10.4307V10.4736V10.5187L10.5188 10.5639L10.5231 10.6111L10.5295 10.6562L10.5381 10.7014L10.5488 10.7443L10.5553 10.7658L10.5617 10.7873L10.5703 10.8066L10.5789 10.826L10.5875 10.8453L10.5982 10.8625L10.609 10.8797L10.6197 10.8947L10.6326 10.9098L10.6391 10.9162L10.6455 10.9226L10.652 10.9291L10.6584 10.9355L10.6649 10.942L10.6734 10.9484L10.725 10.9914L10.7766 11.0279L10.826 11.0601L10.8754 11.0902L10.9699 11.1396L11.0559 11.1805L11.1332 11.217L11.1676 11.2363L11.1998 11.2557L11.2148 11.2664L11.2277 11.2771L11.2406 11.2879L11.2535 11.2986L11.2643 11.3115L11.2686 11.318L11.2729 11.3244L11.2772 11.3308L11.2815 11.3373L11.2857 11.3437L11.29 11.3502L11.2965 11.3652L11.3029 11.3803L11.3072 11.3953L11.3115 11.4103L11.3137 11.4232L11.3158 11.4361L11.318 11.449V11.4619V11.4748L11.3158 11.4877L11.3137 11.4984L11.3115 11.5092L11.3072 11.5199L11.3029 11.5307L11.2986 11.5392L11.2943 11.5478L11.2879 11.5564L11.2815 11.565L11.275 11.5736L11.2686 11.5801L11.2621 11.5865L11.2557 11.593L11.2492 11.5994L11.2406 11.6037L11.232 11.608L11.2234 11.6123L11.2148 11.6144L11.2063 11.6166H11.202H11.1977H11.1934H11.1891H11.1848H11.1805H11.1762H11.1719L11.1547 11.6144L11.1375 11.6123L11.1225 11.6101L11.1096 11.6058L11.1031 11.6037L11.0967 11.6016L11.0902 11.5994L11.0838 11.5973L11.0773 11.5951L11.0731 11.593L11.0688 11.5908L11.0645 11.5887L11.0602 11.5844L11.0559 11.5801L11.0516 11.5758L11.0473 11.5715L11.043 11.5672L11.0387 11.5629L11.0365 11.5586L11.0344 11.5543L11.0322 11.55L11.0301 11.5457L11.0279 11.5414L11.0258 11.5371L11.0236 11.5328L11.0215 11.5285L11.0172 11.5178L11.015 11.507L11.0129 11.4963L11.0107 11.4834L11.0086 11.4705L11.0065 11.4447V11.4189L11.0107 11.3029H10.4693V11.5629H10.493ZM4.51817 9.92792L4.43438 9.93436L4.35704 9.9451L4.32051 9.95155L4.28614 9.96014L4.25391 9.96874L4.22169 9.97948L4.19161 9.99022L4.16368 10.001L4.1379 10.0139L4.11212 10.0267L4.08848 10.0418L4.067 10.0568L4.04551 10.0719L4.02618 10.0891L4.00684 10.1062L3.98965 10.1234L3.97462 10.1406L3.95958 10.1599L3.94669 10.1793L3.9338 10.1986L3.92305 10.218L3.91231 10.2394L3.90372 10.2609L3.89512 10.2824L3.88868 10.3039L3.88223 10.3254L3.87794 10.3469L3.87364 10.3683L3.86934 10.3898L3.86719 10.4113L3.86505 10.4564V10.5015L3.86934 10.5467L3.87579 10.5896L3.88438 10.6326L3.89512 10.6734L3.90587 10.7142L3.91876 10.7529L3.9338 10.7894L3.94883 10.8238L3.96387 10.8539L3.98106 10.8818L3.99825 10.9055L4.00684 10.9162L4.01544 10.9269L4.02403 10.9355L4.03262 10.9441L4.04122 10.9506L4.04551 10.9527L4.04981 10.9549L4.10137 10.9978L4.15294 11.0344L4.20235 11.0666L4.25176 11.0967L4.3463 11.1461L4.43223 11.1869L4.50958 11.2234L4.54395 11.2428L4.57618 11.2621L4.59122 11.2728L4.60411 11.2836L4.617 11.2943L4.62989 11.3051L4.64063 11.318L4.64493 11.3244L4.64922 11.3308L4.65352 11.3373L4.65782 11.3437L4.66212 11.3502L4.66641 11.3566L4.67286 11.3717L4.6793 11.3867L4.6836 11.4017L4.6879 11.4168L4.69005 11.4297L4.69219 11.4426L4.69434 11.4555V11.4683V11.4812L4.69219 11.4941L4.69005 11.5049L4.6879 11.5156L4.6836 11.5264L4.6793 11.5371L4.67501 11.5457L4.67071 11.5543L4.66426 11.5629L4.65782 11.5715L4.65137 11.5801L4.64493 11.5865L4.63848 11.593L4.63204 11.5994L4.62344 11.6058L4.61485 11.6101L4.60626 11.6144L4.59766 11.6187L4.58907 11.6209L4.58047 11.623H4.57618H4.57188H4.56758H4.56329H4.55899H4.55469L4.53751 11.6209L4.52032 11.6187L4.50528 11.6166L4.49239 11.6123L4.48594 11.6101L4.4795 11.608L4.47305 11.6058L4.46661 11.6037L4.46016 11.6016L4.45587 11.5994L4.45157 11.5973L4.44727 11.5951L4.44297 11.5908L4.43868 11.5865L4.43438 11.5822L4.43008 11.5779L4.42579 11.5736L4.42149 11.5693L4.41934 11.565L4.41719 11.5607L4.41505 11.5564L4.4129 11.5521L4.41075 11.5478L4.4086 11.5435L4.4043 11.5371L4.40215 11.5328L4.39786 11.5221L4.39571 11.5113L4.39356 11.5006L4.39141 11.4877L4.38926 11.4748L4.38712 11.449V11.4232L4.39141 11.3072H3.85001V11.5629V11.5758V11.5887L3.85215 11.6016L3.8543 11.6144L3.85645 11.6273L3.8586 11.6402L3.86075 11.6531L3.86505 11.6639L3.86934 11.6746L3.87364 11.6853L3.87794 11.6961L3.88223 11.7068L3.88868 11.7176L3.89512 11.7283L3.90801 11.7498L3.92305 11.7691L3.93809 11.7885L3.95528 11.8057L3.97462 11.8228L3.99395 11.84L4.01544 11.8551L4.03692 11.8701L4.06055 11.8851L4.08419 11.898L4.10997 11.9109L4.13575 11.9217L4.16153 11.9324L4.21739 11.9517L4.2754 11.9668L4.33555 11.9797L4.39571 11.9883L4.45801 11.9947L4.52032 11.9969L4.58262 11.9947L4.64493 11.9904L4.70723 11.9818L4.76739 11.9711L4.8254 11.956L4.85333 11.9474L4.88126 11.9367L4.90919 11.926L4.93497 11.9152L4.96075 11.9023L4.98653 11.8894L5.01016 11.8744L5.0338 11.8594L5.05528 11.8422L5.07676 11.825L5.0961 11.8078L5.11544 11.7885L5.13262 11.7691L5.14981 11.7476L5.16485 11.7262L5.17774 11.7025L5.19063 11.6789L5.20137 11.6531L5.20997 11.6273L5.21641 11.6016L5.22286 11.5736L5.22715 11.5457L5.2336 11.4705L5.23575 11.4017L5.2336 11.3373L5.2293 11.2793L5.22501 11.2514L5.22071 11.2256L5.21641 11.1998L5.20997 11.1762L5.20352 11.1525L5.19708 11.131L5.18848 11.1096L5.17989 11.0902L5.1713 11.0709L5.16055 11.0537L5.14981 11.0365L5.13907 11.0193L5.12833 11.0043L5.11544 10.9892L5.10255 10.9742L5.08965 10.9613L5.07676 10.9484L5.06173 10.9355L5.04669 10.9248L5.03165 10.9141L5.00157 10.8926L4.96934 10.8732L4.93712 10.856L4.90274 10.8389L4.83184 10.8066L4.6879 10.7422L4.65137 10.725L4.617 10.7057L4.58262 10.6842L4.54825 10.6605L4.51602 10.6348L4.4838 10.6068L4.46876 10.5918L4.45372 10.5767L4.43868 10.5596L4.42364 10.5424L4.41719 10.5273L4.41075 10.5123L4.40645 10.4994L4.40215 10.4865L4.40001 10.4736L4.39786 10.4607V10.4543V10.4478V10.4414V10.4349V10.4285V10.4221V10.4178V10.4135L4.40001 10.4092L4.40215 10.4049L4.4043 10.4006L4.40645 10.3963L4.4086 10.392L4.41075 10.3877L4.4129 10.3834L4.41505 10.3791L4.41719 10.3748L4.41934 10.3705L4.42149 10.3662L4.42364 10.3619L4.43008 10.3555L4.43653 10.349L4.44297 10.3426L4.44942 10.3361L4.45587 10.3318L4.46231 10.3275L4.46876 10.3232L4.4752 10.3189L4.48165 10.3146L4.48809 10.3125L4.49454 10.3103L4.50098 10.3082L4.50743 10.306L4.51387 10.3039H4.52032H4.52676H4.54395L4.56114 10.306L4.57618 10.3082L4.59122 10.3103L4.60411 10.3125L4.61055 10.3146L4.617 10.3168L4.62344 10.3189L4.62774 10.3211L4.63204 10.3232L4.63633 10.3254L4.64063 10.3275L4.64493 10.3297L4.64922 10.3318L4.65352 10.334L4.65782 10.3383L4.66212 10.3426L4.66641 10.3469L4.66856 10.3512L4.67071 10.3555L4.67286 10.3598L4.67501 10.3641L4.67715 10.3683L4.6793 10.3726L4.68145 10.3769L4.6836 10.3812L4.68575 10.3855L4.6879 10.3963L4.69005 10.407L4.69219 10.4178L4.69434 10.4285L4.69649 10.4521V10.4779L4.69219 10.5896H5.18633V10.3211V10.306V10.291L5.18419 10.2781L5.18204 10.2652L5.17989 10.2523L5.17774 10.2394L5.17344 10.2266L5.16915 10.2137L5.16485 10.2029L5.16055 10.1922L5.15411 10.1814L5.14766 10.1707L5.14122 10.1599L5.13477 10.1492L5.12833 10.1385L5.11973 10.1277L5.11114 10.1191L5.10255 10.1105L5.09395 10.1019L5.08536 10.0933L5.06602 10.0762L5.04669 10.0611L5.0252 10.0461L5.00157 10.0332L4.97794 10.0203L4.9543 10.0096L4.92852 9.99882L4.90274 9.99022L4.84903 9.97303L4.79317 9.96014L4.73516 9.9494L4.67715 9.94081L4.61915 9.93436L4.51817 9.92792ZM17.5334 12.0721L17.5957 12.0742L17.6537 12.0721L17.7074 12.0678L17.7568 12.0613L17.802 12.0527L17.8449 12.042L17.8643 12.0355L17.8836 12.0291L17.9008 12.0226L17.918 12.0162L17.9352 12.0076L17.9502 11.999L17.9652 11.9904L17.9803 11.9818L17.9932 11.9732L18.0061 11.9646L18.019 11.9539L18.0297 11.9432L18.0404 11.9324L18.0512 11.9217L18.0598 11.9109L18.0684 11.9002L18.077 11.8894L18.0856 11.8765L18.092 11.8637L18.0984 11.8508L18.1049 11.8379L18.1113 11.825L18.1221 11.7992L18.1307 11.7734L18.1371 11.7476L18.1414 11.7219L18.1457 11.6961L18.1479 11.6703L18.15 11.6445L18.1522 11.593V11.5435L18.15 11.4576V10.9291H17.5119V11.2105H17.643V11.5435V11.55V11.5564V11.5629L17.6408 11.5693L17.6387 11.5758L17.6365 11.5822L17.6344 11.5887L17.6322 11.5951L17.6301 11.6016L17.6279 11.608L17.6236 11.6144L17.6193 11.6209L17.615 11.6273L17.6107 11.6316L17.6065 11.6359L17.6022 11.6402L17.5979 11.6445L17.5936 11.6488L17.5893 11.6531L17.5828 11.6574L17.5764 11.6617L17.5699 11.666L17.5635 11.6682L17.557 11.6703L17.5506 11.6724L17.5441 11.6746L17.5377 11.6767L17.5313 11.6789L17.5248 11.681H17.5184H17.5119H17.5055H17.499H17.4926H17.4861L17.4797 11.6789L17.4732 11.6767L17.4668 11.6746L17.4604 11.6724L17.4539 11.6703L17.4475 11.6682L17.441 11.666L17.4346 11.6617L17.4281 11.6574L17.4217 11.6531L17.4174 11.6488L17.4131 11.6445L17.4088 11.6402L17.4045 11.6359L17.4002 11.6316L17.3959 11.6273L17.3916 11.6209L17.3873 11.6144L17.383 11.608L17.3809 11.6016L17.3787 11.5951L17.3766 11.5887L17.3744 11.5822L17.3723 11.5758L17.3701 11.5693L17.368 11.5629V11.5564V11.55V11.5435V10.4629V10.4564V10.45V10.4435L17.3701 10.4371L17.3723 10.4307L17.3744 10.4242L17.3766 10.4178L17.3787 10.4113L17.3809 10.4049L17.383 10.3984L17.3873 10.392L17.3916 10.3855L17.3959 10.3791L17.4002 10.3748L17.4045 10.3705L17.4088 10.3662L17.4131 10.3619L17.4174 10.3576L17.4217 10.3533L17.4281 10.349L17.4346 10.3447L17.441 10.3404L17.4475 10.3383L17.4539 10.3361L17.4604 10.334L17.4668 10.3318L17.4732 10.3297L17.4797 10.3275L17.4861 10.3254H17.4926H17.499H17.5055H17.5119H17.5184H17.5248L17.5313 10.3275L17.5377 10.3297L17.5441 10.3318L17.5506 10.334L17.557 10.3361L17.5635 10.3383L17.5699 10.3404L17.5764 10.3447L17.5828 10.349L17.5893 10.3533L17.5936 10.3576L17.5979 10.3619L17.6022 10.3662L17.6065 10.3705L17.6107 10.3748L17.615 10.3791L17.6193 10.3855L17.6236 10.392L17.6279 10.3984L17.6301 10.4049L17.6322 10.4113L17.6344 10.4178L17.6365 10.4242L17.6387 10.4307L17.6408 10.4371L17.643 10.4435V10.45V10.4564V10.4629V10.6412H18.1522V10.4199V10.392L18.15 10.3791L18.1479 10.3662L18.1457 10.3533L18.1436 10.3404L18.1414 10.3275L18.1328 10.3125L18.1285 10.2996L18.1242 10.2867L18.1199 10.2738L18.1156 10.2631L18.1092 10.2523L18.1027 10.2416L18.0898 10.2201L18.0748 10.1986L18.0598 10.1793L18.0426 10.1599L18.0254 10.1428L18.0061 10.1256L17.9846 10.1084L17.9631 10.0933L17.9416 10.0783L17.918 10.0654L17.8943 10.0525L17.8686 10.0396L17.8428 10.0289L17.817 10.0182L17.7891 10.0096L17.7332 9.99452L17.6752 9.98163L17.615 9.97303L17.5549 9.96659L17.4926 9.96444L17.4303 9.96659L17.3701 9.97089L17.31 9.97948L17.252 9.99237L17.1961 10.0074L17.1682 10.016L17.1424 10.0267L17.1166 10.0375L17.0908 10.0482L17.0672 10.0611L17.0436 10.074L17.0221 10.0891L17.0006 10.1041L16.9791 10.1213L16.9598 10.1385L16.9426 10.1557L16.9254 10.175L16.9104 10.1943L16.8953 10.2158L16.8824 10.2373L16.876 10.248L16.8717 10.2588L16.8652 10.2695L16.8609 10.2803L16.8566 10.2932L16.8524 10.306L16.8481 10.3189L16.8459 10.3318L16.8438 10.3447L16.8416 10.3576L16.8395 10.3705L16.8373 10.3834V10.4113V11.6295V11.6488V11.666L16.8395 11.6832L16.8416 11.7004L16.8438 11.7176L16.8459 11.7326L16.8502 11.7476L16.8545 11.7627L16.8588 11.7777L16.8631 11.7928L16.8695 11.8057L16.876 11.8185L16.8824 11.8314L16.8889 11.8443L16.8975 11.8572L16.9061 11.868L16.9147 11.8787L16.9232 11.8894L16.9318 11.9002L16.9426 11.9109L16.9533 11.9217L16.9641 11.9303L16.9856 11.9474L17.0092 11.9646L17.0328 11.9797L17.0586 11.9926L17.0844 12.0055L17.1102 12.0162L17.1381 12.0269L17.166 12.0355L17.194 12.0441L17.252 12.057L17.31 12.0656L17.368 12.0721L17.4238 12.0764H17.4775L17.5334 12.0721Z" fill="white"/>
</g>
<defs>
<clipPath id="clip0_14814_108889">
<rect width="22" height="22" fill="white"/>
</clipPath>
</defs>
</svg>
