<svg width="24" height="25" viewBox="0 0 24 25" fill="none" xmlns="http://www.w3.org/2000/svg">
<path d="M13.6 13.2333L13.4 13.1333C13.3 13.1333 13.3 13.1333 13.2 13.2333C13.2 13.3333 13.2 13.3333 13.3 13.4333L13.5 13.5333C13.6 13.5333 13.6 13.5333 13.6 13.4333C13.7 13.3333 13.6 13.3333 13.6 13.2333Z" fill="#C8C8DB"/>
<path d="M15.6 14.0331L14.1 13.4331C14 13.4331 14 13.4331 13.9 13.5331C13.9 13.6331 13.9 13.6331 14 13.7331L15.5 14.3331C15.6 14.3331 15.6 14.3331 15.6 14.2331C15.7 14.1331 15.7 14.1331 15.6 14.0331Z" fill="#C8C8DB"/>
<path d="M12 0.0332031C5.4 0.0332031 0 5.4332 0 12.0332C0 18.6332 5.4 24.0332 12 24.0332C18.6 24.0332 24 18.6332 24 12.0332C24 5.4332 18.6 0.0332031 12 0.0332031ZM11.8 16.9332C11.8 17.0332 11.8 17.0332 11.7 17.1332C11.7 17.1332 11.6 17.2332 11.5 17.2332C9.1 17.1332 7.1 15.4332 6.6 13.2332C6.5 12.7332 6.4 12.1332 6.4 11.5332C6.6 10.2332 7.2 9.0332 8 8.1332C8.8 7.2332 10 6.7332 11.2 6.5332C11.3 6.5332 11.4 6.5332 11.5 6.5332C14.5 6.3332 17 8.6332 17.2 11.6332C17.2 11.7332 17.2 11.7332 17.1 11.8332L17 11.9332H16.3C16.2 11.9332 16.1 11.8332 16.1 11.7332C16.1 11.6332 16.1 11.6332 16.1 11.5332C16 10.8332 15.8 10.1332 15.4 9.6332C14.7 8.5332 13.4 7.8332 12 7.8332C10.7 7.8332 9.6 8.4332 8.8 9.3332C8.2 10.0332 7.8 10.9332 7.8 11.9332C7.8 12.7332 8 13.5332 8.5 14.2332C9.1 15.1332 9.9 15.7332 11 16.0332C11.3 16.1332 11.5 16.1332 11.8 16.1332C11.9 16.1332 12 16.2332 12 16.3332V16.9332H11.8ZM11.8 14.6332C11.8 14.7332 11.7 14.8332 11.6 14.8332C11.5 14.8332 11.3 14.8332 11.2 14.7332C9.7 14.4332 8.7 13.0332 8.9 11.4332C8.9 11.0332 9.1 10.6332 9.3 10.2332C9.4 10.0332 9.6 9.7332 9.9 9.5332C10.3 9.1332 10.9 8.9332 11.5 8.8332C11.9 8.8332 12.3 8.8332 12.6 8.9332C13.7 9.2332 14.5 10.0332 14.8 11.1332C14.8 11.2332 14.9 11.4332 14.9 11.5332C14.9 11.6332 14.8 11.7332 14.7 11.7332H14H13.9L13.8 11.6332C13.8 11.5332 13.8 11.3332 13.7 11.2332C13.5 10.6332 13 10.1332 12.4 10.0332C12.2 9.9332 12 9.9332 11.7 10.0332H11.6C11 10.1332 10.6 10.5332 10.3 11.0332C10.2 11.1332 10.2 11.3332 10.1 11.5332C10.1 11.7332 10.1 11.8332 10.1 12.0332C10.1 12.4332 10.3 12.7332 10.5 13.0332C10.8 13.4332 11.3 13.7332 11.8 13.7332C11.9 13.7332 11.9 13.7332 11.9 13.8332C11.9 13.8332 12 13.9332 12 14.0332V14.6332H11.8ZM11.9 12.3332C11.9 12.4332 12 12.5332 12 12.6332C11.9 12.6332 11.9 12.6332 11.8 12.6332C11.4 12.6332 11 12.2332 11 11.8332C11 11.4332 11.4 11.0332 11.8 11.0332C12.2 11.0332 12.6 11.4332 12.6 11.8332V11.9332L12.3 11.8332C12 11.7332 11.7 12.0332 11.9 12.3332ZM17.4 14.3332L15.1 15.1332C15.1 15.1332 15.1 15.1332 15 15.2332L14.2 17.5332C14.2 17.6332 14.1 17.6332 14 17.5332C14 17.5332 14 17.5332 12 12.3332C12 12.2332 12 12.1332 12.1 12.2332C17.6 14.3332 17.3 14.2332 17.3 14.2332C17.5 14.2332 17.5 14.3332 17.4 14.3332Z" fill="#C8C8DB"/>
</svg>
