<svg width="24" height="24" viewBox="0 0 24 24" fill="none" xmlns="http://www.w3.org/2000/svg">
<path fill-rule="evenodd" clip-rule="evenodd" d="M12 24C18.6274 24 24 18.6274 24 12C24 5.37258 18.6274 0 12 0C5.37258 0 0 5.37258 0 12C0 18.6274 5.37258 24 12 24ZM12.8666 12.5058C12.8666 13.5367 12.0309 14.3725 10.9999 14.3725C9.969 14.3725 9.13326 13.5367 9.13326 12.5058C9.13326 11.4749 9.969 10.6391 10.9999 10.6391C12.0309 10.6391 12.8666 11.4749 12.8666 12.5058ZM17.5331 5.50586H15.6664C15.5426 5.50586 15.4239 5.55503 15.3364 5.64254C15.2489 5.73006 15.1997 5.84876 15.1997 5.97253V6.43919H12.8664C12.2475 6.43919 11.6541 6.68503 11.2165 7.12261C10.7789 7.56019 10.5331 8.15369 10.5331 8.77253V9.74786C10.6873 9.7221 10.8433 9.70806 10.9997 9.70586C11.1561 9.70806 11.3121 9.7221 11.4664 9.74786V8.77253C11.4664 8.40122 11.6139 8.04513 11.8764 7.78258C12.139 7.52003 12.4951 7.37253 12.8664 7.37253H15.1997V7.83919C15.1997 7.96296 15.2489 8.08166 15.3364 8.16918C15.4239 8.25669 15.5426 8.30586 15.6664 8.30586H17.5331C17.6568 8.30586 17.7755 8.25669 17.863 8.16918C17.9506 8.08166 17.9997 7.96296 17.9997 7.83919V5.97253C17.9997 5.84876 17.9506 5.73006 17.863 5.64254C17.7755 5.55503 17.6568 5.50586 17.5331 5.50586ZM15.6662 11.1055H17.5328C17.6566 11.1055 17.7753 11.1547 17.8628 11.2422C17.9503 11.3297 17.9995 11.4484 17.9995 11.5722V13.4389C17.9995 13.5626 17.9503 13.6813 17.8628 13.7689C17.7753 13.8564 17.6566 13.9055 17.5328 13.9055H15.6662C15.5424 13.9055 15.4237 13.8564 15.3362 13.7689C15.2487 13.6813 15.1995 13.5626 15.1995 13.4389V12.9722H13.7575C13.7833 12.8179 13.7973 12.6619 13.7995 12.5055C13.7973 12.3492 13.7833 12.1931 13.7575 12.0389H15.1995V11.5722C15.1995 11.4484 15.2487 11.3297 15.3362 11.2422C15.4237 11.1547 15.5424 11.1055 15.6662 11.1055ZM17.5331 16.7059H15.6664C15.5426 16.7059 15.4239 16.7551 15.3364 16.8426C15.2489 16.9301 15.1997 17.0488 15.1997 17.1726V17.7839H12.8664C12.4951 17.7839 12.139 17.6364 11.8764 17.3738C11.6139 17.1113 11.4664 16.7552 11.4664 16.3839V15.2639C11.3121 15.2897 11.1561 15.3037 10.9997 15.3059C10.8433 15.3037 10.6873 15.2897 10.5331 15.2639V16.3839C10.5331 17.0027 10.7789 17.5962 11.2165 18.0338C11.6541 18.4714 12.2475 18.7172 12.8664 18.7172H15.1997V19.0392C15.1997 19.163 15.2489 19.2817 15.3364 19.3692C15.4239 19.4567 15.5426 19.5059 15.6664 19.5059H17.5331C17.6568 19.5059 17.7755 19.4567 17.863 19.3692C17.9506 19.2817 17.9997 19.163 17.9997 19.0392V17.1726C17.9997 17.0488 17.9506 16.9301 17.863 16.8426C17.7755 16.7551 17.6568 16.7059 17.5331 16.7059ZM7.26667 10.1724V12.0391H8.242C8.21624 12.1934 8.2022 12.3494 8.2 12.5058C8.2022 12.6621 8.21624 12.8181 8.242 12.9724H7.26667V14.8391C7.26667 14.9629 7.2175 15.0816 7.12998 15.1691C7.04247 15.2566 6.92377 15.3058 6.8 15.3058H4.46667C4.3429 15.3058 4.2242 15.2566 4.13668 15.1691C4.04917 15.0816 4 14.9629 4 14.8391V10.1724C4 10.0487 4.04917 9.92995 4.13668 9.84244C4.2242 9.75492 4.3429 9.70575 4.46667 9.70575H6.8C6.92377 9.70575 7.04247 9.75492 7.12998 9.84244C7.2175 9.92995 7.26667 10.0487 7.26667 10.1724Z" fill="white"/>
</svg>
