<svg width="24" height="25" viewBox="0 0 24 25" fill="none" xmlns="http://www.w3.org/2000/svg">
<path d="M9.23436 12.5562C9.39301 12.5563 9.54812 12.5093 9.68008 12.4213C9.81203 12.3332 9.9149 12.208 9.97568 12.0614C10.0365 11.9149 10.0524 11.7536 10.0215 11.598C9.99062 11.4424 9.91427 11.2994 9.80212 11.1872C9.68997 11.075 9.54706 10.9986 9.39147 10.9676C9.23588 10.9366 9.0746 10.9525 8.92802 11.0132C8.78144 11.0738 8.65615 11.1766 8.568 11.3085C8.47985 11.4404 8.4328 11.5955 8.4328 11.7542C8.43317 11.9667 8.51773 12.1704 8.66795 12.3207C8.81818 12.471 9.02185 12.5557 9.23436 12.5562Z" fill="#C8C8DB"/>
<path d="M12 0.494141C5.37281 0.494141 0 5.86695 0 12.4941C0 19.1213 5.37281 24.4941 12 24.4941C18.6272 24.4941 24 19.1218 24 12.4941C24 5.86648 18.6272 0.494141 12 0.494141ZM9.23438 9.58461C9.66366 9.58452 10.0833 9.71174 10.4403 9.95018C10.7973 10.1886 11.0755 10.5276 11.2399 10.9242C11.4042 11.3208 11.4472 11.7572 11.3635 12.1782C11.2797 12.5993 11.073 12.986 10.7695 13.2896C10.4659 13.5931 10.0792 13.7998 9.65814 13.8836C9.23709 13.9673 8.80068 13.9243 8.40409 13.7599C8.00749 13.5956 7.66854 13.3174 7.4301 12.9604C7.19166 12.6034 7.06444 12.1837 7.06453 11.7545C7.06515 11.1792 7.29396 10.6276 7.70075 10.2208C8.10754 9.81404 8.65909 9.58523 9.23438 9.58461ZM12.7631 19.3191C12.6733 19.3191 12.5843 19.3014 12.5012 19.267C12.4182 19.2327 12.3427 19.1822 12.2792 19.1187C12.2156 19.0551 12.1652 18.9797 12.1308 18.8967C12.0965 18.8136 12.0787 18.7246 12.0787 18.6348C12.0836 18.2579 12.0135 17.8839 11.8727 17.5344C11.7318 17.1849 11.523 16.8668 11.2582 16.5986C10.9935 16.3304 10.6781 16.1175 10.3304 15.9722C9.98268 15.8268 9.60958 15.752 9.23273 15.752C8.85589 15.752 8.48279 15.8268 8.13509 15.9722C7.78739 16.1175 7.47202 16.3304 7.20726 16.5986C6.9425 16.8668 6.73364 17.1849 6.59278 17.5344C6.45192 17.8839 6.38188 18.2579 6.38672 18.6348C6.38672 18.8163 6.31461 18.9903 6.18627 19.1187C6.05792 19.247 5.88385 19.3191 5.70234 19.3191C5.52084 19.3191 5.34676 19.247 5.21842 19.1187C5.09007 18.9903 5.01797 18.8163 5.01797 18.6348C5.01797 17.517 5.462 16.445 6.25238 15.6546C7.04275 14.8643 8.11474 14.4202 9.2325 14.4202C10.3503 14.4202 11.4222 14.8643 12.2126 15.6546C13.003 16.445 13.447 17.517 13.447 18.6348C13.447 18.8162 13.375 18.9902 13.2467 19.1185C13.1185 19.2469 12.9446 19.319 12.7631 19.3191ZM16.1747 12.7684H14.6583C14.5669 12.7708 14.476 12.7548 14.3909 12.7215C14.3058 12.6882 14.2283 12.6382 14.1628 12.5744C14.0974 12.5107 14.0453 12.4344 14.0098 12.3502C13.9743 12.2661 13.956 12.1756 13.956 12.0842C13.956 11.9928 13.9743 11.9024 14.0098 11.8182C14.0453 11.734 14.0974 11.6578 14.1628 11.594C14.2283 11.5302 14.3058 11.4802 14.3909 11.4469C14.476 11.4136 14.5669 11.3977 14.6583 11.4001H16.1747C16.5518 11.3933 16.9111 11.2387 17.1754 10.9696C17.4397 10.7005 17.5878 10.3384 17.5878 9.96125C17.5878 9.58408 17.4397 9.22199 17.1754 8.9529C16.9111 8.68381 16.5518 8.52923 16.1747 8.52242H14.0245L14.3409 8.83883C14.4045 8.90236 14.4549 8.97777 14.4892 9.06077C14.5236 9.14378 14.5413 9.23274 14.5413 9.32258C14.5413 9.41242 14.5236 9.50138 14.4892 9.58438C14.4549 9.66738 14.4045 9.7428 14.3409 9.80633C14.2774 9.86985 14.202 9.92025 14.119 9.95463C14.036 9.98901 13.947 10.0067 13.8572 10.0067C13.7673 10.0067 13.6784 9.98901 13.5954 9.95463C13.5124 9.92025 13.437 9.86985 13.3734 9.80633L11.8828 8.3157C11.8193 8.25219 11.7688 8.17678 11.7344 8.09377C11.7001 8.01077 11.6823 7.9218 11.6823 7.83195C11.6823 7.7421 11.7001 7.65314 11.7344 7.57013C11.7688 7.48713 11.8193 7.41172 11.8828 7.3482L13.3617 5.86977C13.4252 5.80624 13.5007 5.75585 13.5837 5.72147C13.6667 5.68709 13.7556 5.66939 13.8455 5.66939C13.9353 5.66939 14.0243 5.68709 14.1073 5.72147C14.1903 5.75585 14.2657 5.80624 14.3292 5.86977C14.3927 5.93329 14.4431 6.00871 14.4775 6.09171C14.5119 6.17471 14.5296 6.26367 14.5296 6.35352C14.5296 6.44336 14.5119 6.53232 14.4775 6.61532C14.4431 6.69832 14.3927 6.77374 14.3292 6.83727L14.0123 7.15414H16.1747C16.5464 7.14934 16.9153 7.2184 17.2601 7.35731C17.6049 7.49623 17.9186 7.70223 18.1832 7.96337C18.4477 8.22451 18.6578 8.53559 18.8011 8.87855C18.9445 9.22151 19.0183 9.58953 19.0183 9.96125C19.0183 10.333 18.9445 10.701 18.8011 11.0439C18.6578 11.3869 18.4477 11.698 18.1832 11.9591C17.9186 12.2203 17.6049 12.4263 17.2601 12.5652C16.9153 12.7041 16.5464 12.7732 16.1747 12.7684Z" fill="#C8C8DB"/>
</svg>
