<svg width="24" height="25" viewBox="0 0 24 25" fill="none" xmlns="http://www.w3.org/2000/svg">
<path d="M14.304 9.0212H9.69595V8.45448C9.69595 7.18403 10.7295 6.15044 12 6.15044C13.2705 6.15044 14.304 7.18403 14.304 8.45448L14.304 9.0212ZM16.6035 10.3683C16.5924 10.2417 16.4883 10.1462 16.3612 10.1462H15.4291V12.0653C15.4291 12.3759 15.1772 12.6278 14.8666 12.6278C14.556 12.6278 14.3041 12.3759 14.3041 12.0653V10.1462H9.696V12.0653C9.696 12.3759 9.44414 12.6278 9.1335 12.6278C8.82286 12.6278 8.571 12.3759 8.571 12.0653V10.1462H7.63889C7.51177 10.1462 7.40761 10.2416 7.39664 10.3683L6.76434 17.6518C6.75769 17.7285 6.77536 17.7805 6.82739 17.8372C6.87872 17.8932 6.93066 17.916 7.00659 17.916H16.9935C17.0695 17.916 17.1214 17.8932 17.1727 17.8372C17.2247 17.7805 17.2424 17.7285 17.2357 17.6518L16.6035 10.3683ZM24 12.0332C24 18.65 18.6168 24.0332 12 24.0332C5.38317 24.0332 0 18.65 0 12.0332C0 5.41638 5.38317 0.0332031 12 0.0332031C18.6168 0.0332031 24 5.41638 24 12.0332ZM18.3565 17.5546L17.7242 10.271C17.6624 9.55848 17.0764 9.0212 16.3612 9.0212H15.429V8.45448C15.429 6.56369 13.8908 5.02544 12 5.02544C10.1092 5.02544 8.57095 6.56369 8.57095 8.45448V9.0212H7.63884C6.92362 9.0212 6.33764 9.55853 6.27581 10.2711L5.64352 17.5546C5.60944 17.9467 5.73211 18.3074 5.99813 18.5975C6.26414 18.8877 6.61284 19.0411 7.00655 19.0411H16.9935C17.3871 19.0411 17.7358 18.8877 18.0019 18.5975C18.2679 18.3073 18.3906 17.9467 18.3565 17.5546Z" fill="#C8C8DB"/>
</svg>
