<svg width="18" height="20" viewBox="0 0 18 20" fill="none" xmlns="http://www.w3.org/2000/svg">
<path d="M2.84328 2.56837C6.24369 -0.832036 11.7568 -0.832036 15.1573 2.56837C18.5577 5.96878 18.5577 11.4819 15.1573 14.8823L13.9703 16.0562C13.0954 16.9149 11.9603 18.0188 10.5644 19.3684C9.69218 20.2118 8.30836 20.2117 7.43624 19.3682L3.94515 15.9723C3.50638 15.5415 3.13912 15.1782 2.84328 14.8823C-0.557134 11.4819 -0.557134 5.96878 2.84328 2.56837ZM14.0966 3.62903C11.282 0.81441 6.71856 0.81441 3.90394 3.62903C1.08931 6.44366 1.08931 11.0071 3.90394 13.8217L5.39101 15.2891C6.20992 16.0906 7.23938 17.091 8.47906 18.29C8.76976 18.5711 9.23104 18.5712 9.52178 18.2901L12.9167 14.9886C13.3856 14.5283 13.779 14.1393 14.0966 13.8217C16.9112 11.0071 16.9112 6.44366 14.0966 3.62903ZM9.00026 5.99903C10.658 5.99903 12.0018 7.34287 12.0018 9.00058C12.0018 10.6583 10.658 12.0021 9.00026 12.0021C7.34255 12.0021 5.99871 10.6583 5.99871 9.00058C5.99871 7.34287 7.34255 5.99903 9.00026 5.99903ZM9.00026 7.49903C8.17098 7.49903 7.49871 8.1713 7.49871 9.00058C7.49871 9.82986 8.17098 10.5021 9.00026 10.5021C9.82955 10.5021 10.5018 9.82986 10.5018 9.00058C10.5018 8.1713 9.82955 7.49903 9.00026 7.49903Z" fill="#1AB394"/>
</svg>
